<?xml version="1.0" standalone="no"?>
<!DOCTYPE svg PUBLIC "-//W3C//DTD SVG 1.1//EN" "http://www.w3.org/Graphics/SVG/1.1/DTD/svg11.dtd" >
<!--
2013-9-30: Created.
-->
<svg>
<metadata>
Created by iconfont
</metadata>
<defs>

<font id="iconfont" horiz-adv-x="1024" >
  <font-face
    font-family="iconfont"
    font-weight="500"
    font-stretch="normal"
    units-per-em="1024"
    ascent="896"
    descent="-128"
  />
    <missing-glyph />
    
    <glyph glyph-name="xinghao" unicode="&#58902;" d="M527.5659615 396.34541769c9.66163129 4.2940583 19.32326239 8.58811662 27.91137903 12.88217493 8.58811662 4.2940583 16.10271877 7.51460212 20.39677708 9.6616313 5.36757298 2.14702916 9.66163129 3.22054383 12.88217511 3.22054382 5.36757298 0 9.66163129-2.14702916 13.9556896-5.36757299s5.36757298-7.51460212 5.3675728-12.88217491c0-3.22054383-1.07351467-6.44108746-3.22054364-9.66163132-2.14702916-3.22054383-4.2940583-5.36757298-5.36757297-6.44108744-19.32326239-7.51460212-39.72003948-12.88217494-63.33736038-16.10271877 4.2940583-4.2940583 9.66163129-8.58811662 15.0292041-15.0292041 6.44108746-6.44108746 9.66163129-9.66163129 9.6616313-10.73514595 2.14702916-3.22054383 5.36757298-6.44108746 9.66163127-11.80866044 4.2940583-4.2940583 6.44108746-8.58811662 8.58811664-10.73514577 1.07351467-2.14702916 2.14702916-5.36757298 2.14702915-9.6616313s-2.14702916-8.58811662-5.36757298-12.88217492c-3.22054383-3.22054383-8.58811662-5.36757298-13.95568943-5.36757283s-11.80866045 4.2940583-19.32326258 12.88217496c-7.51460212 8.58811662-16.10271877 24.69083537-26.83786452 47.23464159-10.73514578-20.39677708-19.32326239-34.35246667-22.54380623-40.79355415-4.2940583-6.44108746-7.51460212-11.80866045-10.73514579-15.02920408-3.22054383-3.22054383-7.51460212-5.36757298-11.80866043-5.36757297-5.36757298 0-9.66163129 2.14702916-13.9556896 5.36757297-3.22054383 4.2940583-5.36757298 7.51460212-5.36757299 11.80866028 0 4.2940583 1.07351467 7.51460212 2.14702916 8.5881168 13.95568959 18.24974792 27.91137921 34.35246667 42.9405833 48.3081561-13.95568959 6.44108746-25.76435005 8.58811662-35.42598117 10.73514593-9.66163129 2.14702916-20.39677708 5.36757298-31.13192284 10.73514579-1.07351467 1.07351467-3.22054383 3.22054383-5.367573 6.44108746C423.435047 398.49244685 422.36153235 401.71299068 422.36153235 404.93353432c0 5.36757298 2.14702916 9.66163129 5.36757297 12.8821751 4.2940583 3.22054383 8.58811662 5.36757298 12.88217494 5.36757281 4.2940583 0 8.58811662-1.07351467 13.95568959-3.22054366 5.36757298-2.14702916 11.80866045-5.36757298 20.39677708-9.66163127l27.9113792-13.95568961c-2.14702916 9.66163129-3.22054383 20.39677708-4.29405849 32.20543752-2.14702916 11.80866045-2.14702916 20.39677708-2.14702914 24.69083539 0 5.36757298 2.14702916 9.66163129 5.36757298 13.95568957S509.31621359 473.63846765 514.68378641 473.63846765s9.66163129-2.14702916 12.8821751-5.36757297c3.22054383-4.2940583 5.36757298-9.66163129 5.36757282-16.10271875 0-2.14702916 0-5.36757298-1.07351449-10.73514578 0-5.36757298-1.07351467-11.80866045-2.14702916-19.32326241 0-7.51460212-1.07351467-16.10271877-2.14702917-25.76435006z"  horiz-adv-x="1080" />

    
    <glyph glyph-name="3" unicode="&#58899;" d="M512-64.256C264.448-64.256 63.744 136.448 63.744 384 63.744 631.552 264.448 832.256 512 832.256c247.552 0 448.256-200.704 448.256-448.256C960.256 136.448 759.552-64.256 512-64.256L512-64.256 512-64.256zM637.952 497.664c0 27.392-10.368 52.096-31.232 73.984-25.344 26.752-58.88 40.064-100.608 40.064-24.448 0-46.592-4.608-66.304-13.824-19.712-9.216-35.072-21.888-46.08-38.016-11.008-16.128-19.2-37.76-24.704-64.64l78.72-13.312c2.176 19.328 8.448 33.92 18.688 44.16 10.24 10.112 22.656 15.104 37.248 15.104 14.72 0 26.496-4.48 35.328-13.312 8.832-8.832 13.312-20.736 13.312-35.712 0-17.536-6.144-31.616-18.176-42.112-12.032-10.496-29.696-15.616-52.608-14.976l-9.472-68.864c15.232 4.352 28.288 6.4 39.168 6.4 16.64 0 30.72-6.272 42.112-18.816 11.52-12.544 17.408-29.44 17.408-50.944 0-22.656-6.016-40.704-18.048-54.016-12.032-13.312-26.752-19.968-44.416-19.968-16.384 0-30.336 5.504-41.856 16.64-11.52 11.136-18.56 27.008-21.248 48l-82.432-9.984c4.224-37.376 19.584-67.584 46.08-90.624 26.368-23.04 59.776-34.688 99.968-34.688 42.368 0 77.952 13.696 106.368 41.216 28.544 27.52 42.752 60.672 42.752 99.712 0 26.88-7.552 49.792-22.912 68.864-15.232 18.944-35.584 31.232-61.056 36.608C616.704 427.52 637.952 458.752 637.952 497.664L637.952 497.664 637.952 497.664zM637.952 497.664"  horiz-adv-x="1024" />

    
    <glyph glyph-name="1" unicode="&#58900;" d="M512.018063 891.75516c-280.448474 0-507.75516-227.324749-507.75516-507.773223 0-280.430411 227.306685-507.75516 507.75516-507.75516 280.430411 0 507.737096 227.324749 507.737096 507.75516C1019.75516 664.430411 792.448474 891.75516 512.018063 891.75516zM546.898007 139.47913200000005l-58.217534 0L488.680473 541.167472c-25.234221-25.234221-57.260187-49.474969-96.059834-72.75837L392.620639 523.718469c48.499559 32.983313 88.292679 71.764897 119.343235 116.435068l34.934133 0L546.898007 139.47913200000005z"  horiz-adv-x="1024" />

    
    <glyph glyph-name="2" unicode="&#59002;" d="M513.930971-102.39999999999998c-274.724571 0-497.371429 222.676114-497.371428 497.371429s222.646857 497.371429 497.371428 497.371428c274.666057 0 497.371429-222.676114 497.371429-497.371428s-222.705371-497.371429-497.371429-497.371429z m7.723886 759.866514c-53.365029 0-96.899657-17.554286-129.199543-54.0672-31.597714-33.704229-47.747657-78.6432-48.449828-134.816914h76.536685c1.404343 40.725943 9.8304 70.919314 26.682515 91.984457 16.149943 21.767314 40.023771 32.299886 71.621485 32.299886 29.4912 0 52.662857-7.021714 68.110629-21.065143 15.447771-14.043429 23.171657-35.108571 23.171657-63.195429 0-29.4912-11.936914-56.875886-34.4064-82.154057-14.043429-14.7456-37.917257-33.704229-71.621486-57.578057-56.875886-39.3216-94.793143-69.514971-113.0496-91.282286-33.704229-37.917257-49.854171-81.451886-49.854171-131.306057H686.665143v67.408457h-250.6752c10.532571 27.384686 42.832457 58.9824 96.899657 94.793143 49.854171 33.704229 84.260571 60.386743 103.921371 80.749715 32.299886 35.810743 49.152 75.132343 49.152 118.666971 0 44.2368-15.447771 80.047543-45.641142 108.1344-30.895543 28.086857-70.919314 41.428114-118.666972 41.428114z"  horiz-adv-x="1024" />

    
    <glyph glyph-name="huo" unicode="&#58898;" d="M336-76.79999999999995c-60.8 128-28.8 201.6 19.2 268.8 51.2 76.8 64 150.4 64 150.4s41.6-51.2 25.6-134.4c70.4 80 83.2 208 73.6 256 160-112 230.4-358.4 137.6-537.6 492.8 281.6 121.6 700.8 57.6 745.6 22.4-48 25.6-128-19.2-166.4-73.6 281.6-256 336-256 336 22.4-144-76.8-300.8-172.8-419.2-3.2 57.6-6.4 96-38.4 153.6-6.4-105.6-86.4-188.8-108.8-294.4C89.6 137.60000000000002 140.8 35.200000000000045 336-76.79999999999995L336-76.79999999999995z"  horiz-adv-x="1024" />

    
    <glyph glyph-name="shouji" unicode="&#58896;" d="M724.350707 832.646465H297.787475C253.310707 832.646465 217.212121 796.444444 217.212121 752.071111v-736.245656c0-44.476768 36.20202-80.575354 80.575354-80.575354h426.563232c44.476768 0 80.575354 36.20202 80.575354 80.575354V752.071111c0 44.476768-36.098586 80.575354-80.575354 80.575354zM297.787475 791.272727h426.563232c21.617778 0 39.201616-17.583838 39.201616-39.201616V716.282828H258.585859v35.788283C258.585859 773.688889 276.169697 791.272727 297.787475 791.272727zM258.585859 674.909091h505.069899v-527.72202H258.585859V674.909091z m465.764848-698.285253H297.787475c-21.617778 0-39.201616 17.583838-39.201616 39.201617v89.987878h505.069899v-89.987878c-0.103434-21.617778-17.687273-39.201616-39.305051-39.201617z m0 0M435.975758 746.278788h150.083232c8.274747 0 14.99798 6.723232 14.99798 14.99798 0 8.274747-6.723232 14.99798-14.99798 14.997979H435.975758c-8.274747 0-14.99798-6.723232-14.99798-14.997979 0-8.274747 6.723232-14.99798 14.99798-14.99798z m0 0M457.490101 40.339394c0-19.135354 10.214141-36.822626 26.789495-46.403232 16.575354-9.567677 37.003636-9.567677 53.57899 0a53.575111 53.575111 0 0 1 26.789495 46.403232c0 29.595152-23.983838 53.57899-53.57899 53.57899-29.595152 0-53.57899-23.983838-53.57899-53.57899z m0 0"  horiz-adv-x="1024" />

    
    <glyph glyph-name="youjiantou" unicode="&#58894;" d="M33.983285559835394 341.37896715588477L844.3269608823044 341.37896715588477 637.3996785040327 142.17610834172842c-5.296905397201645-5.298286238024694-5.296905397201645-13.885735316543212 4.905732080279064e-15-19.185402395390945l41.56330877366258-41.564689614485566a13.569522768065841 13.569522768065841 0 0 1 19.186783236213994 9.811464160558128e-15l260.49009790419734 250.77312103242812c0.2996424586008229 0.2526938706172841 0.5965232355555554 0.5136727861728396 0.879595604279835 0.7953643140740744l1.3918875496296288 1.39188754962963 40.174182905679 38.67320893102883a13.530859225020574 13.530859225020574 0 0 1 3.9381580273250956 10.328689356378598 13.523955020905348 13.523955020905348 0 0 1-3.935396345679019 10.353544491193414l-41.56607045530864 40.06509648065842c-0.2692639604938272 0.26374059720164594-0.5495746475720168 0.5109111045267488-0.8312661754732514 0.7511774077366251l-260.53980817382717 250.8159270979422a13.56676108641975 13.56676108641975 0 0 1-19.186783236213994-9.811464160558128e-15l-41.56607045530862-41.56607045530865c-5.296905397201645-5.296905397201647-5.296905397201645-13.885735316543212 9.811464160558128e-15-19.186783236213994L842.3854986851029 427.28797896164633l-808.3994514436214-3.139668531378601e-13c-7.492442305843622-2.452866040139532e-15-13.565380245596698-6.072937939753094-13.565380245596698-13.56399940477367l2.4528660401395314e-14-58.783774677860066c4.292515570244181e-15-7.489680624197531 6.072937939753094-13.565380245596698 13.565380245596714-13.565380245596698l-0.002761681646090537 0.004142522469135801z"  horiz-adv-x="1024" />

    
    <glyph glyph-name="youjiantou1" unicode="&#58895;" d="M500 896c-276.1563 0-500-223.8438-500-500s223.8438-500 500-499.99999999 500 223.8438 499.99999999 499.99999999-223.8438 500-499.99999999 500zM500-10.25c-224.375 0-406.25 181.875-406.25000001 406.25s181.875 406.25 406.25000001 406.25000001 406.25-181.875 406.25-406.25000001-181.875-406.25-406.25-406.25zM794.1875 440.1875l-250.00000001 250c-24.4063 24.4063-63.9688 24.4063-88.37499999 0s-24.4063-63.9688 0-88.375l143.3125-143.3125-349.125 0c-34.5313 0-62.5-27.9688-62.5-62.5s27.9688-62.5 62.5-62.5l349.125 0-143.3125-143.3125c-24.4063-24.4063-24.4063-63.9688 0-88.4063 12.2188-12.1875 28.1875-18.31250001 44.1875-18.31249999s32 6.0938 44.1875 18.31249999l250 250c24.4063 24.4063 24.4063 63.9688 0 88.375z"  horiz-adv-x="1000" />

    
    <glyph glyph-name="pdf" unicode="&#58903;" d="M758.094 749.625l-576.563 0c-15.539 0-28.125-12.586-28.125-28.125l0-759.375c0-15.525 12.586-28.125 28.125-28.125l435.938 0 168.75 168.75 0 618.75c0 15.539-12.6 28.125-28.125 28.125zM744.031 159l-154.688 0c-15.525 0-28.125-12.6-28.125-28.125l0-154.688-337.5 0c-15.539 0-28.125 12.6-28.125 28.125l0 675c0 15.539 12.586 28.125 28.125 28.125l492.188 0c15.525 0 28.125-12.586 28.125-28.125l0-520.313zM842.469 834l-587.109 0c-23.287 0-42.188-18.886-42.188-42.188l587.109 0c15.525 0 28.125-12.586 28.125-28.125l0-586.814c23.175 0 41.991 18.731 42.159 41.892l0.028 0 0 587.109c0 15.539-12.6 28.125-28.125 28.125zM311.933 250.20899999999995c-21.066 0-37.477 11.405-39.923 27.731-1.8 12.009 2.616 34.411 52.369 49.655 18.38 5.625 39.923 11.123 62.578 15.947 25.833 33.258 55.125 76.655 76.697 113.597-13.837 29.756-20.489 54.422-19.758 73.392 2.475 64.659 28.012 71.634 38.897 71.634 8.986 0 17.578-4.683 24.188-13.191 11.461-14.766 19.828-45.788 8.916-88.594-2.362-9.295-9.225-24.173-20.433-44.269 15.567-30.389 37.884-64.519 61.172-93.544 40.247-0.788 69.173-7.313 86.02-19.406 19.477-13.992 29.25-35.663 23.766-52.692-3.923-12.178-14.681-19.448-28.758-19.448 0 0 0 0-0.014 0-14.948 0-33.398 8.114-54.844 24.117-13.57 10.153-28.322 26.142-39.487 39.347-40.078-0.45-90.703-6.356-140.611-16.397-26.128-32.695-47.18-53.198-62.62-60.989-8.958-4.514-18.703-6.891-28.153-6.891zM356.623 307.5c-8.466-2.208-16.523-4.486-24.005-6.778-26.269-8.044-32.541-16.875-32.78-18.802 0.492-0.759 4.795-3.572 12.094-3.572 5.077 0 10.434 1.35 15.483 3.881 3.839 1.912 12.909 7.805 29.208 25.27zM582.748 332.827c6.244-6.342 11.981-11.489 16.875-15.159 22.402-16.706 34.059-18.52 38.025-18.52l0 0c1.448 0 2.208 0.253 2.377 0.323 0.534 1.673-1.659 12.108-13.795 20.827-5.386 3.881-17.494 9.689-43.481 12.53zM429.777 352.41600000000005l-0.717-0.9c32.048 5.33 63.548 8.902 91.645 10.364l-0.717 0.872 0.998 0c-15.427 20.812-29.953 43.158-41.948 64.547l-0.464-0.83-0.239 0.45c-15.047-24.638-32.597-50.934-49.823-74.756l1.266 0.253zM482.216 574.125c-0.787-0.97-8.958-11.573-10.223-44.662-0.295-7.847 1.294-20.714 8.845-40.795 5.667 11.545 7.341 16.889 7.805 18.675 10.434 40.936-1.28 64.8-6.427 66.783z"  horiz-adv-x="1024" />

    
    <glyph glyph-name="trash" unicode="&#58936;" d="M852.072759 705.107706H660.390255l-0.112888 63.216845c0 35.220814-27.996031 63.329732-63.103957 63.329732H406.168228c-35.220814 0-62.99107-27.996031-62.99107-63.103958v-63.216845H151.607541c-35.220814 0-63.668394 1.919083-63.668394-33.188843s28.560467-30.931099 63.668394-30.931099v-572.902657c0-70.32874 58.024033-124.175945 128.352772-124.175945h448.049388c70.32874 0 123.837284 53.847205 123.837284 124.175945V640.987763c35.107926 0 68.183883-4.176827 68.29677 30.931099 0 35.220814-33.075956 33.188844-68.070996 33.188844z m-445.791643 31.382648c0 17.610407 14.22379 31.834197 31.834197 31.834197h127.336787c17.610407 0 31.834197-14.22379 31.834197-31.834197v-31.382648H406.394003l-0.112887 31.382648zM789.081689 67.407783c0-35.107926-29.463565-62.99107-64.571492-62.99107H278.944328c-35.220814 0-63.442619 28.334693-63.442619 63.442619V639.6331170000001c43.800243 0 537.79473 0.112887 573.57998 0.112887v-572.338221zM374.446919 545.59806c17.610407 0 31.834197-14.22379 31.834197-31.834197v-413.731673c0-17.610407-14.22379-31.834197-31.834197-31.834196s-31.834197 14.22379-31.834197 31.834196V513.763863c0 17.49752 14.22379 31.834197 31.834197 31.834197zM629.007607 545.59806c17.610407 0 31.834197-14.22379 31.834197-31.834197v-413.731673c0-17.610407-14.22379-31.834197-31.834197-31.834196S597.17341 82.421784 597.17341 100.03219000000001V513.763863c0.112887 17.49752 14.336677 31.834197 31.834197 31.834197z"  horiz-adv-x="1024" />

    
    <glyph glyph-name="iconjian" unicode="&#58891;" d="M717.09184214 353.18794708999997h-410.1317627c-16.98779924 0-30.7590824 13.77023422-30.75908241 30.75803348s13.77023422 30.76537592 30.75908241 30.76537593h410.13281163c16.99566616 0 30.7590824-13.77757668 30.7590824-30.76537593-0.00052447-16.98884817-13.76446518-30.75803347-30.7590824-30.75803348z"  horiz-adv-x="1024" />

    
    <glyph glyph-name="biaoqian" unicode="&#58967;" d="M512 895.534545C229.469091 895.534545 0.465455 666.5309090000001 0.465455 384S229.469091-127.53454499999998 512-127.53454499999998 1023.534545 101.46909100000005 1023.534545 384 794.530909 895.534545 512 895.534545z m306.176-608.209454l-186.88-186.88a63.813818 63.813818 0 0 0-89.367273 0l-254.510545 254.510545c-24.343273 24.343273-46.08 73.169455-46.08 108.357819V612.352c0 35.095273 29.789091 64.884364 64.930909 64.884364h148.945454c35.188364 0 83.968-21.690182 108.311273-46.08l254.603637-254.464a63.813818 63.813818 0 0 0 0-89.367273zM390.190545 593.128727c-35.095273 0-64.930909-29.696-64.930909-64.884363 0-35.095273 29.696-64.930909 64.930909-64.930909 35.188364 0 65.024 29.789091 64.884364 64.930909 0 35.048727-29.696 64.884364-64.884364 64.884363z"  horiz-adv-x="1024" />

    
    <glyph glyph-name="d" unicode="&#58892;" d="M853.333333 370.64533300000005a303.573333 303.573333 0 0 1-80.213333 205.44c8.405333 14.634667 13.568 31.36 13.568 49.408A99.84 99.84 0 0 1 686.848 725.333333c-38.613333 0-71.68-22.101333-88.32-54.144a303.914667 303.914667 0 0 1-50.261333 4.522667c-162.218667 0-294.869333-127.36-304.213334-287.274667a99.584 99.584 0 0 1 26.453334-195.712c9.557333 0 18.56 1.749333 27.306666 4.266667a304.810667 304.810667 0 0 1 250.453334-131.413333c29.397333 0 57.728 4.394667 84.650666 12.202666a99.669333 99.669333 0 0 1 81.92-42.965333 99.84 99.84 0 0 1 99.84 99.84c0 21.802667-7.168 41.813333-18.986666 58.24A302.933333 302.933333 0 0 1 853.333333 370.64533300000005z m-82.176-153.6a99.84 99.84 0 0 1-156.16-82.389333c0-8.789333 1.450667-17.194667 3.584-25.301333a270.08 270.08 0 0 0-70.314666-9.6 270.421333 270.421333 0 0 0-219.136 112.298666 99.413333 99.413333 0 0 1 41.258666 80.512c0 52.48-40.533333 94.976-91.946666 99.072 10.794667 139.562667 127.573333 249.898667 269.824 249.898667 13.653333 0 26.88-1.322667 40.021333-3.285333-0.554667-4.266667-1.28-8.405333-1.28-12.8a99.84 99.84 0 0 1 99.84-99.84c24.618667 0 46.848 9.258667 64.256 24.021333a269.44 269.44 0 0 0 20.053333-332.586667zM448.426667 470.997333h199.68v-199.722666h-199.68V470.997333z"  horiz-adv-x="1024" />

    
    <glyph glyph-name="jia" unicode="&#58893;" d="M902.947 324.97299999999996h-332.293v-332.346c0-32.387-26.267-58.628-58.655-58.628-32.387 0-58.654 26.241-58.654 58.628v332.346h-332.295c-32.414 0-58.654 26.241-58.654 58.628 0 32.375 26.243 58.628 58.654 58.628h332.293v332.346c0 32.375 26.267 58.628 58.654 58.628 32.388 0 58.655-26.254 58.655-58.628v-332.347h332.293c32.414 0 58.655-26.252 58.655-58.626-0.001-32.387-26.241-58.626-58.655-58.626z"  horiz-adv-x="1024" />

    
    <glyph glyph-name="suo" unicode="&#58890;" d="M749.592768-143.709661l-491.094878 0c-86.46835 0-156.814512 71.095221-156.814512 158.481478l0.623193 307.188334c0 60.461023 49.225121 109.686145 109.730147 109.686145l585.907267 0c60.506049 0 109.730147-49.225121 109.730147-109.730147l-1.2689-307.23336C906.406257-72.614439 836.060095-143.709661 749.592768-143.709661zM212.036719 387.97568c-36.424584 0-66.058508-29.633924-66.058508-66.059532l-0.623193-307.187311c0-63.261812 50.755987-114.764813 113.142873-114.764813l491.094878 0c62.386886 0 113.140827 51.503001 113.140827 114.808816l1.2689 307.234383c0 36.334533-29.633924 65.968457-66.059532 65.968457L212.036719 387.97568zM276.774139 413.791649 233.102501 413.791649l0 86.850044c0 66.660212 25.962302 129.3326 73.103972 176.471201C353.348142 724.25047 416.021553 750.209702 482.682789 750.209702l37.008892 0c66.669422 0 129.345903-25.960255 176.484504-73.097832 47.136553-47.136553 73.094762-109.807918 73.094762-176.470177l0-82.579787-43.671639 0 0 82.579787c0 113.531729-92.369757 205.897394-205.907627 205.897394l-37.008892 0c-113.537869 0-205.90865-92.364641-205.90865-205.897394L276.774139 413.791649zM580.007395 193.143297c0 42.479487-34.429137 76.907601-76.907601 76.907601-42.435485 0-76.863598-34.429137-76.863598-76.907601 0-34.473139 22.841218-63.319118 54.088896-73.082482l0-96.52438c0-13.544481 10.18599-24.531719 22.774703-24.531719s22.774703 10.986215 22.774703 24.531719l0 96.52438C557.166177 129.824179 580.007395 158.671181 580.007395 193.143297z"  horiz-adv-x="1024" />

    
    <glyph glyph-name="qq" unicode="&#58922;" d="M812.224 69.50400000000002c58.56-8.512 102.72-88.512 43.648-130.624-44.416-31.616-101.76-30.976-167.552-41.6-5.504-0.768-19.008 2.752-23.808 3.904-37.632 8.896-70.848 7.616-102.016 20.736-15.488 6.656-37.312 21.504-63.744 15.104-25.344-6.144-46.528-19.392-71.04-26.496-65.408-18.88-164.928-14.976-222.272 9.472-26.24 11.264-53.056 25.728-63.808 52.992-17.664 44.864 35.584 91.648 69.312 96.512C207.552 90.49599999999998 187.072 110.144 178.112 128c-5.632 11.136-6.656 25.472-14.592 34.112-13.248-14.656-58.304-47.744-91.072-39.744-7.296 2.496-14.592 5.12-21.824 7.488-7.744 30.272-0.256 65.856 7.232 90.752 16.256 54.272 26.88 107.328 52.864 151.36 11.52 19.584 25.216 48.064 34.624 64.32 0 258.112 138.688 434.496 352.768 434.496 83.2 0 288.384-32.32 363.264-269.952 7.936-25.216 10.624-52.672 16.384-79.424 6.656-30.528 0.832-71.616 0-102.08 16.32-11.904 24.128-33.024 34.624-51.072 22.976-39.04 33.92-83.776 49.28-132.352 9.344-29.76 19.968-67.968 12.8-104-58.304-31.104-80 16.384-116.608 30.272C852.928 126.52800000000002 818.048 98.49599999999998 812.224 69.50400000000002zM413.184 729.472C407.68 727.616 402.24 725.76 396.736 723.84 375.872 710.912 362.88 683.7760000000001 356.672 655.744 345.152 604.096 382.656 527.9359999999999 429.504 540.352 504.128 560.192 507.648 730.56 413.184 729.472zM595.392 729.472C589.888 727.616 584.384 725.76 578.88 723.84 558.144 710.912 545.088 683.712 538.88 655.744 527.36 604.352 564.992 527.9359999999999 611.776 540.352 686.272 560.192 689.984 730.944 595.392 729.472zM436.8 672.768c5.44-0.64 10.944-1.28 16.384-1.856C457.856 664.896 464.832 659.648 467.84 651.968c7.488-19.264-1.28-46.336-14.592-51.072C449.664 597.248 440.32 595.072 435.008 598.976c-10.88 3.584-11.584 11.52-18.176 18.88C415.36 634.752 417.216 645.8240000000001 420.416 659.52 425.536 662.912 432.448 668.2239999999999 436.8 672.768zM586.24 667.072c4.992-0.448 9.664-1.344 12.736-3.776 16.512-5.76 19.072-37.184 14.592-58.624-1.216 0-2.432 0-3.648 0C605.248 601.856 603.264 603.328 600.896 608.448 594.816 619.008 600.256 637.44 593.472 646.336c-2.368 1.664-4.48 1.664-9.088 1.856C582.912 645.568 566.208 610.3679999999999 566.208 610.3679999999999c-3.008 0-6.08 0-9.088 0C554.688 614.912 553.792 615.6800000000001 553.472 623.616c4.8 6.656 4.672 17.216 9.024 24.576 4.032 6.72 11.264 11.392 16.384 17.024C583.168 665.6 584.064 665.5360000000001 586.24 667.072zM484.224 510.144C472.192 502.848 451.136 508.16 436.8 504.448 398.528 494.464 362.368 483.456 332.992 464.704 321.152 457.216 308.16 455.36 305.6 438.208c17.92-19.2 32.96-35.264 67.456-37.824 0 0.64 0 1.28 0 1.92C366.272 409.088 360.128 420.8 358.528 432.576c0.576 0 1.216 0 1.792 0 33.728-37.568 128.128-80 202.24-56.704 41.472 12.992 71.68 37.184 103.872 58.624 0-1.28 0-2.56 0-3.84-6.4-8.512-11.2-21.312-16.384-30.272 3.136 0 6.08 0 9.216 0 20.864 14.336 55.616 10.688 58.176 43.52C664.512 494.336 585.856 509.504 484.224 510.144zM240 330.432C234.88 307.96799999999996 228.928 283.904 223.68 258.624c-8.448-40.512 8.32-94.656 18.24-119.232 35.008-86.848 94.528-144.128 184-174.016 46.336-15.488 118.528-14.4 163.968 0 95.616 30.144 163.712 87.36 196.8 181.632 18.56 52.608 15.232 134.72-3.648 183.424-1.344 0-2.432 0-3.648 0-13.888-19.712-41.408-28.672-62.08-41.6-77.888-49.088-228.608-71.552-337.024-34.048-32.832 11.392-67.008 25.6-94.784 43.52C270.976 307.712 256.96 324.544 240 330.432z"  horiz-adv-x="1024" />

    
    <glyph glyph-name="sanjiaoxing02" unicode="&#58889;" d="M1011.86763058 627.4501112600001L512 140.54988877999995 12.13236942 627.4501112600001Z"  horiz-adv-x="1024" />

    
    <glyph glyph-name="caidan" unicode="&#58935;" d="M85.444189 683.361647c0-14.632957 6.037374-29.265914 16.372539-39.703408 10.335165-10.335165 24.968122-16.474868 39.703408-16.474868 14.735285 0 29.265914 6.037374 39.703408 16.474868 10.335165 10.335165 16.474868 24.968122 16.474868 39.703408s-6.037374 29.265914-16.474868 39.703408c-10.335165 10.335165-24.968122 16.372539-39.703408 16.372539-14.632957 0-29.265914-6.037374-39.703408-16.372539C91.583891 712.627561 85.444189 697.994604 85.444189 683.361647L85.444189 683.361647zM85.444189 404.823823c0-14.735285 6.037374-29.265914 16.474868-39.703408 10.437494-10.437494 24.968122-16.474868 39.703408-16.474868 14.735285 0 29.265914 6.037374 39.703408 16.474868 10.437494 10.437494 16.474868 24.968122 16.474868 39.703408 0 14.735285-6.037374 29.265914-16.474868 39.703408-10.437494 10.437494-24.968122 16.474868-39.703408 16.474868-14.735285 0-29.265914-6.037374-39.703408-16.474868C91.583891 434.089737 85.444189 419.559109 85.444189 404.823823L85.444189 404.823823zM85.444189 125.569701c0-14.735285 6.037374-29.265914 16.474868-39.703408 10.437494-10.437494 24.968122-16.474868 39.703408-16.474868 14.735285 0 29.265914 6.037374 39.703408 16.474868 10.437494 10.437494 16.474868 24.968122 16.474868 39.703408 0 14.735285-6.037374 29.265914-16.474868 39.703408-10.437494 10.437494-24.968122 16.474868-39.703408 16.474868-14.735285 0-29.265914-6.037374-39.703408-16.474868C91.583891 154.937943 85.444189 140.304987 85.444189 125.569701L85.444189 125.569701zM940.50005 652.663136 321.515739 652.663136c-16.986509 0-30.698511 13.712002-30.698511 30.698511l0 0c0 16.986509 13.712002 30.698511 30.698511 30.698511l618.984311 0c16.986509 0 30.698511-13.712002 30.698511-30.698511l0 0C971.198561 666.375137 957.384231 652.663136 940.50005 652.663136zM940.50005 374.125312 321.515739 374.125312c-16.986509 0-30.698511 13.712002-30.698511 30.698511l0 0c0 16.986509 13.712002 30.698511 30.698511 30.698511l618.984311 0c16.986509 0 30.698511-13.712002 30.698511-30.698511l0 0C971.198561 387.837314 957.384231 374.125312 940.50005 374.125312zM940.50005 94.87119 321.515739 94.87119c-16.986509 0-30.698511 13.712002-30.698511 30.698511l0 0c0 16.986509 13.712002 30.698511 30.698511 30.698511l618.984311 0c16.986509 0 30.698511-13.712002 30.698511-30.698511l0 0C971.198561 108.68552 957.384231 94.87119 940.50005 94.87119z"  horiz-adv-x="1214" />

    
    <glyph glyph-name="liubianxing" unicode="&#58880;" d="M500 800C223.8457 800 0 576.1543 0 300s223.8457-500 500-500 500 223.8457 500 500S776.1543 800 500 800zM500-121.875c-233.002 0-421.875 188.873-421.875 421.875S266.998 721.875 500 721.875s421.875-188.873 421.875-421.875S733.002-121.875 500-121.875zM718.293 362.7441l-0.2129 62.7754-27.4043 15.625L499.3906 550l-190.7656-109.7422L281.25 424.4805l0.1523-62.1641 0.457-187.8047 163.2695-92.957L473.1133 65.625l26.9766-15.3203 0.5195-0.3047 54.8086 31.5254L718.75 175.5195 718.293 362.7441zM499.5723 487.1953l136.3516-77.5762-136.0176-78.2461-136.3828 77.6055L499.5723 487.1953zM336.6094 206.0371l-0.3965 155.793 135.834-77.3008 0.4277-155.8223L336.6094 206.0371zM527.8008 128.5527 527.4355 284.375l135.9551 78.2461 0.4883-155.8828L527.8008 128.5527z"  horiz-adv-x="1000" />

    
    <glyph glyph-name="xian" unicode="&#58920;" d="M832.962036 811.947675l0-855.894328L704.58111-43.946652 704.58111 811.947675 832.962036 811.947675zM576.191998 811.947675l0-855.894328L447.812095-43.946652 447.812095 811.947675 576.191998 811.947675zM319.427076 811.947675l0-855.894328L191.037964-43.946652 191.037964 811.947675 319.427076 811.947675z"  horiz-adv-x="1024" />

    
    <glyph glyph-name="zhoucheng" unicode="&#58964;" d="M512 834c-248.535 0-450-201.465-450-450s201.465-450 450-450 450 201.465 450 450-201.465 450-450 450zM724.265 680.303c49.5-4.32 86.153-47.993 81.833-97.493s-47.993-86.153-97.515-81.81c-49.5 4.342-86.13 47.991-81.831 97.515 4.343 49.5 47.97 86.13 97.515 81.788zM512.022 775.882c49.68 0 89.978-40.298 89.978-90s-40.297-90-89.977-90c-49.703 0-90 40.297-90 90s40.297 90 90 90zM299.757 689.685c49.523 4.343 93.173-32.287 97.515-81.81 4.297-49.523-32.332-93.173-81.833-97.515-49.523-4.32-93.195 32.31-97.515 81.81s32.332 93.195 81.833 97.515zM168.133 323.273c-38.070 31.95-43.020 88.74-11.070 126.81 31.95 38.093 88.695 43.042 126.787 11.115 38.047-31.972 43.042-88.74 11.092-126.788-31.95-38.115-88.74-43.087-126.81-11.137zM310.873 68.685c-49.703-0.247-90.225 39.892-90.405 89.595-0.225 49.702 39.938 90.18 89.639 90.405 49.703 0.202 90.135-39.961 90.361-89.639 0.225-49.703-39.893-90.158-89.595-90.361zM376.999 384c0 74.543 60.457 135.001 135.001 135.001s135.001-60.457 135.001-135.001c0-74.543-60.457-135.001-135.001-135.001s-135.001 60.457-135.001 135.001zM586.318 25.125c-34.988-35.28-91.98-35.505-127.26-0.518-35.302 35.010-35.55 91.98-0.517 127.282 34.987 35.258 91.98 35.505 127.305 0.54 35.258-35.033 35.483-92.002 0.473-127.305zM788.345 133.193c-31.792-38.228-88.56-43.425-126.765-11.633s-43.425 88.538-11.632 126.743 88.56 43.425 126.765 11.632 43.425-88.538 11.632-126.742zM729.081 324.983c-31.95 38.070-26.955 94.838 11.093 126.81 38.070 31.927 94.838 26.977 126.788-11.115 31.95-38.070 27.001-94.86-11.070-126.81s-94.86-26.955-126.81 11.115z"  horiz-adv-x="1024" />

    
    <glyph glyph-name="height-light-27" unicode="&#58997;" d="M511.72 608.062c-123.603 0-223.817-100.2-223.817-223.817 0-123.618 100.213-223.788 223.817-223.788s223.802 100.17 223.802 223.788c0 123.616-100.198 223.817-223.802 223.817zM511.72 574.303c14.317 0 25.939-11.622 25.939-25.952 0-14.331-11.622-25.923-25.954-25.923-14.302 0-25.923 11.592-25.923 25.923 0 14.329 11.594 25.952 25.939 25.952zM615.502 384.246c0-57.324-46.473-103.782-103.782-103.782-57.323 0-103.797 46.458-103.797 103.782 0 57.323 46.474 103.781 103.797 103.781 57.308 0 103.782-46.458 103.782-103.781zM347.149 479.259c7.164 12.41 23.024 16.661 35.433 9.525 12.41-7.194 16.661-23.040 9.482-35.447-7.151-12.41-23.011-16.661-35.434-9.467-12.409 7.136-16.661 22.981-9.481 35.389zM321.691 384.246c0 14.359 11.622 25.952 25.939 25.952 14.33 0 25.938-11.594 25.938-25.952 0-14.302-11.607-25.923-25.938-25.923-14.316 0-25.939 11.622-25.939 25.923zM382.582 279.734c-12.408-7.137-28.268-2.912-35.433 9.497-7.151 12.436-2.928 28.282 9.495 35.447 12.408 7.137 28.268 2.912 35.433-9.495 7.165-12.409 2.914-28.283-9.495-35.449zM416.706 548.816c12.394 7.166 28.268 2.912 35.434-9.467 7.166-12.408 2.912-28.282-9.495-35.447-12.41-7.166-28.268-2.912-35.42 9.495-7.195 12.408-2.942 28.283 9.481 35.419zM452.14 229.169c-7.166-12.38-23.026-16.632-35.434-9.495-12.423 7.194-16.676 23.040-9.48 35.449 7.151 12.408 23.010 16.659 35.42 9.495 12.407-7.166 16.66-23.011 9.494-35.449zM511.72 194.217c-14.317 0-25.939 11.622-25.939 25.952 0 14.302 11.622 25.923 25.939 25.952 14.317-0.029 25.939-11.622 25.939-25.952s-11.622-25.952-25.939-25.952zM606.735 219.673c-12.408-7.137-28.268-2.885-35.434 9.495-7.164 12.408-2.912 28.283 9.495 35.449 12.41 7.164 28.27 2.912 35.419-9.495 7.166-12.41 2.914-28.255-9.48-35.449zM616.215 513.397c-7.15-12.408-23.010-16.661-35.419-9.495-12.408 7.166-16.659 23.040-9.495 35.447 7.166 12.38 23.026 16.633 35.434 9.467 12.394-7.136 16.646-23.011 9.48-35.419zM640.858 488.783c12.408 7.137 28.253 2.885 35.434-9.525 7.151-12.378 2.898-28.253-9.497-35.42-12.408-7.164-28.268-2.912-35.433 9.497-7.165 12.408-2.911 28.283 9.496 35.447zM676.292 289.232c-7.181-12.41-23.026-16.633-35.434-9.497-12.408 7.166-16.661 23.041-9.495 35.449 7.164 12.408 23.024 16.632 35.433 9.495 12.394-7.166 16.647-23.011 9.496-35.447zM675.81 358.322c-14.33 0-25.922 11.622-25.922 25.923 0 14.359 11.592 25.952 25.922 25.952 14.331 0 25.939-11.594 25.939-25.952-0-14.302-11.606-25.923-25.939-25.923zM511.72 831.995c-247.278 0-447.736-200.486-447.736-447.75 0-247.265 200.457-447.721 447.736-447.721 247.28 0 447.736 200.456 447.736 447.721 0 247.264-200.456 447.75-447.736 447.75zM638.148 733.748c17.113 29.652 55.023 39.817 84.676 22.719 29.623-17.126 39.787-55.021 22.675-84.673-17.113-29.652-55.023-39.817-84.66-22.691-29.638 17.127-39.818 55.022-22.691 84.645zM300.617 756.438c29.652 17.126 67.562 6.962 84.676-22.691 17.126-29.623 6.946-67.517-22.691-84.645-29.637-17.126-67.547-6.962-84.66 22.691-17.112 29.651-6.946 67.517 22.675 84.645zM151.513 328.844c-34.224 0-61.954 27.758-61.954 62.012 0 34.196 27.73 61.955 61.954 61.955s61.998-27.758 61.998-61.955c0-34.254-27.773-62.012-61.998-62.012zM385.292 47.907c-17.113-29.652-55.023-39.817-84.676-22.691-29.623 17.128-39.787 55.023-22.675 84.676 17.113 29.652 55.023 39.787 84.66 22.661 29.652-17.098 39.817-54.993 22.691-84.646zM722.823 25.218c-29.652-17.126-67.562-6.962-84.676 22.691-17.126 29.623-6.946 67.547 22.691 84.645 29.652 17.126 67.547 6.991 84.66-22.661 17.112-29.652 6.947-67.547-22.675-84.674zM511.72 105.202c-154.1 0-279.042 124.958-279.042 279.043 0 154.143 124.943 279.071 279.042 279.071s279.042-124.927 279.042-279.071c0-154.086-124.943-279.043-279.042-279.043zM871.913 328.844c-34.211 0-61.969 27.758-61.969 62.012 0 34.196 27.758 61.955 61.969 61.955 34.238 0 61.998-27.758 61.998-61.955 0-34.254-27.76-62.012-61.998-62.012z"  horiz-adv-x="1024" />

    
    <glyph glyph-name="2019genghuanfadianjipidai" unicode="&#59057;" d="M894.272 746.4c-70.816 70.784-168.72 111.392-268.656 111.392-100.912 0-189.568-40.688-249.648-114.576-46.384-57.04-103.776-150.976-159.296-241.808-50-81.808-101.696-166.4-140.976-216.448-80.448-102.448-79.104-231.568 3.312-313.968 39.76-39.76 90.736-60.8 147.408-60.8 0 0 0.016 0 0.016 0 54.256 0 112.72 19.904 164.64 56.048 52.688 36.72 144.704 79.504 233.68 120.896 99.744 46.368 202.928 94.352 264.72 139.744 68.688 50.448 110.336 128.224 117.216 218.944C1015.024 555.312 973.008 667.664 894.272 746.4zM923.408 452.176c-3.552-46.736-20.912-112.08-83.392-157.984-55.104-40.448-154.416-86.656-250.496-131.312-96.448-44.88-187.568-87.232-246.192-128.064-38.032-26.496-79.552-41.072-116.896-41.072 0 0-0.016 0-0.016 0-34.528 0-64.256 12.24-88.352 36.336-60.176 60.16-40.448 147.568 3.328 203.328 42.304 53.904 92.944 136.752 146.56 224.48 54.08 88.48 110 179.984 152.832 232.672 43.904 54 109.552 83.744 184.832 83.744 77.952 0 154.336-31.68 209.6-86.928C896.016 626.512 929.824 536.4 923.408 452.176zM637.68 757.328c-145.92 0-264.624-118.688-264.624-264.592 0-145.888 118.704-264.592 264.624-264.592 145.888 0 264.576 118.704 264.576 264.592C902.272 638.624 783.584 757.328 637.68 757.328zM637.68 261.552c-127.504 0-231.216 103.696-231.216 231.184s103.712 231.184 231.216 231.184c127.472 0 231.168-103.712 231.168-231.184S765.152 261.552 637.68 261.552zM637.68 553.52c-33.552 0-60.832-27.264-60.832-60.784 0-33.52 27.28-60.8 60.832-60.8 33.52 0 60.784 27.28 60.784 60.8C698.464 526.256 671.2 553.52 637.68 553.52zM637.68 465.328c-15.104 0-27.424 12.288-27.424 27.392 0 15.088 12.32 27.376 27.424 27.376 15.072 0 27.36-12.288 27.36-27.376C665.04 477.632 652.768 465.328 637.68 465.328zM230.064 176.96c-33.344 0-60.48-27.136-60.48-60.464 0-33.344 27.12-60.464 60.48-60.464 33.344 0 60.464 27.12 60.464 60.464C290.528 149.808 263.408 176.96 230.064 176.96zM230.064 81.072c-19.536 0-35.424 15.888-35.424 35.408 0 19.536 15.888 35.408 35.424 35.408 19.52 0 35.408-15.872 35.408-35.408C265.472 96.976 249.584 81.072 230.064 81.072zM235.936 249.776c-69.712 0-126.448-56.72-126.448-126.432 0-69.728 56.72-126.448 126.448-126.448s126.448 56.72 126.448 126.448C362.384 193.056 305.664 249.776 235.936 249.776zM235.936 30.304c-51.296 0-93.024 41.728-93.024 93.04 0 51.296 41.728 93.024 93.024 93.024 51.312 0 93.024-41.728 93.024-93.024C328.976 72.032 287.248 30.304 235.936 30.304z"  horiz-adv-x="1024" />

    
    <glyph glyph-name="xinxi" unicode="&#58897;" d="M532.292683 896C238.726909 896 0.02559 691.281887 0.02559 438.608557c0-150.160736 54.608557-273.042783 163.77449-361.788085v-150.211915c0-40.943623 13.664934-54.608557 34.136745-54.608557a52.254298 52.254298 0 0 1 34.136746 13.664934l163.77449 95.603359a924.814074 924.814074 0 0 1 136.444622-13.716114c293.514594 0 491.323471 218.434226 491.323471 470.851659S778.261495 896 532.292683 896z m0-860.123151c-27.329868 0-95.552179 6.806877-122.830868 6.806878l-27.278688 6.806877-20.471812-13.664934-122.830867-68.273491v143.302679l-27.278689 20.471811c-88.745302 75.080368-136.546981 184.246301-136.546981 307.077169 0 218.434226 204.718113 388.964414 464.198321 388.964415 197.962415 0 423.254698-163.77449 423.254698-388.964415-6.806877-231.894442-191.104358-402.578169-430.215114-402.578168zM273.068373 493.217113a61.415434 61.415434 0 1 1 43.451419-18.015194 62.131947 62.131947 0 0 1-43.451419 18.015194z m238.906037 0a61.415434 61.415434 0 1 1 43.45142-18.015194A62.131947 62.131947 0 0 1 511.820872 493.217113z m238.906038 0a61.415434 61.415434 0 1 1 43.451419-18.015194 62.131947 62.131947 0 0 1-43.40024 18.015194z"  horiz-adv-x="1024" />

    
    <glyph glyph-name="uicon_txt" unicode="&#58927;" d="M832.601 498.2h-19.903v96.053c0 0.601-0.098 1.203-0.171 1.812 0 0.034 0 0.073 0 0.113 0 3.988-1.461 7.634-3.878 10.432l-159.808 182.544c-0.049 0.049-0.098 0.065-0.13 0.114-2.031 2.224-4.661 3.87-7.635 4.683 1.45-0.281-0.765 0.433-3.122 0.662 2.946-0.566 2.678-0.444 2.377-0.362-1.152 0.293-2.475 0.462-3.837 0.464l-392.686-0c-17.936 0-32.508-14.588-32.508-32.508v-263.997h-19.903c-25.66 0-46.462-20.802-46.462-46.462 0 0 0 0 0 0v-241.615c0.005-25.658 20.804-46.457 46.462-46.462l19.903-0v-165.4c0-17.92 14.572-32.508 32.508-32.508h536.381c17.92 0 32.508 14.588 32.508 32.508v165.392h19.903c25.658 0.005 46.457 20.804 46.462 46.462l0 241.616c0 0.002 0 0.005 0 0.008 0 25.656-20.798 46.454-46.454 46.454-0.003 0-0.006-0-0.009-0zM243.81 762.205h376.539v-166.319c0-8.977 7.277-16.254 16.254-16.254 0 0 0 0 0 0h143.588v-81.432h-536.381v264.005zM404.155 454.477h63.017l21.26-44.3c36.157-71.897 61.851-155.503 72.427-243.755l-53.337 203.429c5.746 15.482 10.435 26.291 16.555 40.326l20.537 44.3h62.667l-68.429-118.475 72.029-124.253h-63.39l-21.959 43.934c-9.005 16.929-14.775 29.525-21.618 43.577h-0.723c-5.039-14.052-11.158-26.648-18.716-43.577l-20.163-43.934h-62.675l70.233 122.799-67.714 119.93zM197.429 408.381v46.096h186.539v-46.096h-66.259v-196.624h-55.085v196.624h-65.195zM780.19 7.079h-536.381v156.583h536.381v-156.583zM810.78 408.381h-66.267v-196.624h-55.101v196.624h-65.187v46.096h186.555v-46.096z"  horiz-adv-x="1024" />

    
    <glyph glyph-name="jisu" unicode="&#58917;" d="M512 896C229.23264 896 0 666.78784 0 384.04096 0 101.21216 229.23264-128 512-128s512 229.21216 512 512.04096C1024 666.78784 794.7264 896 512 896z m0-983.04C251.8016-87.04 40.96 123.88352 40.96 384.04096 40.96 644.11648 251.86304 855.04 512 855.04c260.1984 0 471.04-210.90304 471.04-470.99904C983.04 123.88352 772.13696-87.04 512-87.04zM237.19936 441.58976v24.00256h103.19872v-225.60768c1.57696-57.61024 34.38592-87.18336 98.4064-88.80128h350.39232v-26.39872H441.20064c-56.0128-1.57696-95.21152 16.7936-117.59616 55.1936-14.39744-30.37184-44.01152-52.79744-88.80128-67.19488v21.6064c49.58208 22.4256 72.78592 55.97184 69.59104 100.80256V441.58976h-67.19488z m76.8 204.00128c22.38464-40.01792 38.4-80.01536 48.00512-119.99232h-36.00384c-11.20256 44.78976-26.39872 84.7872-45.60896 119.99232h33.60768z m81.59232-59.98592v24.00256h170.3936v45.60896h36.00384v-45.60896h177.60256v-24.00256h-177.60256v-67.19488h148.80768v-107.99104c1.57696-36.82304-19.21024-55.1936-62.40256-55.1936h-79.19616c31.98976-57.61024 89.57952-103.19872 172.81024-136.8064v-24.00256c-83.21024 27.17696-143.21664 63.97952-179.99872 110.40768v-129.59744h-36.00384V307.2c-33.60768-43.19232-92.01664-80.81408-175.2064-112.80384v24.00256c78.37696 35.18464 133.57056 80.77312 165.60128 136.8064h-134.41024v163.20512h143.99488v67.19488h-170.3936z m60.0064-93.61408v-112.80384h110.40768v112.80384h-110.40768z m259.19488-81.59232v81.59232h-112.80384v-112.80384h76.8c24.00256 0.02048 36.00384 10.40384 36.00384 31.21152z"  horiz-adv-x="1024" />

    
    <glyph glyph-name="arrow-right" unicode="&#58881;" d="M329.525 704.453l56.285 58.261 393.996-392.021-393.996-392.021-56.285 58.261 331.786 333.761z"  horiz-adv-x="1024" />

    
    <glyph glyph-name="fankui" unicode="&#58885;" d="M800.038-64.01H223.962c-52.98 0-95.984 43.003-95.984 95.983V671.866c0 52.98 43.004 95.983 95.984 95.983h447.925c17.718 0 31.995-14.277 31.995-31.994s-14.277-31.995-31.995-31.995H223.962c-17.545 0-31.994-14.449-31.994-31.994v-639.893c0-17.717 14.449-31.995 31.994-31.995h575.904c17.717 0 31.994 14.278 31.994 31.995V544.06c0 17.718 14.277 31.995 31.995 31.995 17.717 0 31.994-14.277 31.994-31.995v-511.914c0.173-52.98-43.003-96.156-95.811-96.156zM612.026 448.074c-8.256 0-16.341 3.097-22.706 9.461a31.873 31.873 0 0 0 0 45.24L907.374 820.658c12.557 12.557 32.683 12.557 45.24 0s12.557-32.683 0-45.24L634.56 457.364c-6.192-6.192-14.45-9.289-22.534-9.289z m-132.107 0H287.952c-17.718 0-31.995 14.277-31.995 31.995s14.277 31.995 31.995 31.995h191.967c17.718 0 31.995-14.278 31.995-31.995 0-17.718-14.277-31.995-31.995-31.995z m192.14-191.967H287.952c-17.718 0-31.995 14.277-31.995 31.994s14.277 31.995 31.995 31.995h383.935c17.718 0 31.995-14.277 31.995-31.995s-14.277-31.994-31.823-31.994z"  horiz-adv-x="1024" />

    
    <glyph glyph-name="rentouxiang" unicode="&#58921;" d="M512 384a192 192 0 1 1 0 384 192 192 0 0 1 0-384z m0-64a256 256 0 1 0 0 512 256 256 0 0 0 0-512zM64-64a448 448 0 0 0 896 0h-64a384 384 0 1 1-768 0H64z m64 0H64a448 448 0 0 0 896 0h-64a384 384 0 1 1-768 0z"  horiz-adv-x="1024" />

    
    <glyph glyph-name="chuanganqiganyingqi" unicode="&#58887;" d="M898.127 383.148V777.435c0 32.04-24.242 58.014-54.148 58.014H178.653c-29.905 0-54.147-25.974-54.147-58.014v-394.287H59.015V260.35h126.89v-327.458h67.538V260.35h229.22v-329.505h67.539V260.351h212.847v-329.505h67.538V260.351h128.937V383.148h-61.397z"  horiz-adv-x="1024" />

    
    <glyph glyph-name="left-arrow" unicode="&#58901;" d="M399.13500001 384.247l292.15499999-292.159c12.28-12.27 12.28-32.186 0-44.457-12.27-12.28-32.186-12.28-44.457 0l-314.388 314.388c-12.28 12.27-12.28 32.186 0 44.457l314.388 314.387c6.136 6.14 14.183 9.211 22.228 9.211s16.092-3.071 22.228-9.211c12.28-12.27 12.28-32.186 0-44.457l-292.155-292.16z"  horiz-adv-x="1024" />

    
    <glyph glyph-name="jinshucailiao" unicode="&#59056;" d="M805.376 374.784c-0.512 2.048-0.512 3.072-1.536 3.584-14.336 30.208-29.696 60.416-44.032 91.136-2.048 5.12-6.144 5.12-10.752 3.584-31.232-9.216-61.952-17.408-93.184-25.6-4.608-1.536-7.68-3.584-8.192-8.192-6.656-22.528-13.824-44.544-20.48-67.584-3.072-10.752-6.144-22.016-9.728-33.28 63.488 12.288 125.44 24.064 187.904 36.352zM348.16 722.432c2.048-2.048 3.584-3.072 4.608-4.608l277.504-220.672c2.048-2.048 7.68-3.072 11.264-2.048 21.504 5.12 42.496 11.264 63.488 17.408 3.072 0.512 6.144 2.048 10.752 3.072-22.528 17.408-44.032 33.28-65.024 50.176C577.024 622.592 503.296 678.912 430.08 735.744c-2.048 1.536-6.144 3.584-8.192 3.584-24.576-4.608-48.128-10.752-73.728-16.896z m219.136-372.736c1.536 3.584 3.072 6.144 3.072 8.192 9.216 29.696 17.408 59.904 27.136 89.6 3.072 8.192 0.512 12.288-6.144 17.408-77.312 61.44-154.624 122.88-231.424 183.296-19.456 15.872-39.424 31.232-58.88 47.104-1.536-2.048-2.048-4.608-3.072-6.656-11.264-28.16-22.528-56.32-34.816-83.968-3.072-6.656-2.048-10.752 3.584-15.36C348.16 524.8 429.056 459.776 510.464 394.24c18.944-14.336 36.864-29.184 56.832-44.544zM452.608 783.872c19.456-14.336 219.136-169.984 329.728-255.488 4.608-3.584 8.192-8.192 10.752-12.8 23.552-48.64 47.616-97.28 70.656-146.432 8.192-17.92 1.536-34.304-20.992-37.888-32.768-6.144-66.048-12.8-98.304-18.944-40.96-7.68-81.92-15.36-121.856-23.552-11.264-2.048-22.016-3.584-33.28-6.656-9.728-3.072-16.384 0.512-23.552 6.144l-112.128 89.6C373.76 440.832 295.936 503.808 217.088 566.272c-12.8 10.752-15.36 18.944-9.216 34.304 18.944 45.568 37.888 91.648 55.808 137.216 4.096 13.312 15.36 23.04 28.672 25.088 31.744 6.656 92.672 22.016 124.416 28.672 10.752 2.048 13.824 3.584 20.992 2.048 6.656-2.048 10.24-6.656 14.848-9.728zM419.84 32.256c66.048 12.8 130.56 25.6 194.56 38.912-16.384 43.008-32.768 84.992-49.152 126.464-36.352-10.24-72.192-20.992-108.544-32.768-3.072-1.024-5.632-3.584-6.656-6.656-9.728-40.96-19.456-82.944-30.208-125.952z m-47.616 13.312c2.048 9.728 3.584 18.944 6.144 27.136l22.528 95.744c1.536 4.608 0 6.656-3.072 9.728-86.528 76.8-172.032 153.6-257.536 230.4-11.264 9.728-22.528 20.48-34.816 31.232-15.872-38.4-31.232-76.288-46.08-114.176-0.512-2.048 1.536-6.656 3.072-9.216 12.8-12.288 26.624-23.552 39.936-35.84l215.04-187.904c18.432-14.336 35.84-30.208 54.784-47.104zM144.896 471.552c13.824-12.288 25.6-23.552 38.912-34.816 44.032-39.424 88.576-78.848 132.608-118.784 37.888-34.304 76.288-68.096 114.176-102.912 3.584-3.072 6.656-3.584 12.288-2.048 40.96 12.288 81.92 25.088 123.392 36.352 22.528 6.656 32.768 0.512 40.96-19.968 21.504-55.296 42.496-110.08 63.488-165.376 7.68-19.456 0-34.304-20.48-38.912-72.704-14.336-144.896-28.672-217.6-43.008-14.336-3.072-28.16-6.144-42.496-8.192-7.68-1.536-14.336 1.536-20.48 6.656l-138.752 120.32c-59.392 51.712-117.76 102.912-176.64 154.112-14.336 12.288-28.16 24.064-42.496 36.864-12.288 10.752-13.824 18.944-7.68 34.304 22.016 53.76 44.032 107.52 65.024 160.768 3.584 9.728 11.264 17.408 20.992 20.48 30.208 9.216 60.416 18.944 91.136 28.16 11.264 3.584 22.016 3.072 30.208-6.656 12.288-13.824 6.144-34.304-12.288-40.96-14.336-5.12-29.696-9.216-44.032-13.824-2.048 0.512-5.632-1.024-10.24-2.56zM773.12 100.864c62.976 12.8 124.928 26.624 187.392 39.424-20.48 37.376-40.448 72.704-59.904 108.544-0.512 2.048-5.12 3.584-8.192 3.072-28.16-5.12-56.832-11.264-84.992-16.384-6.144-1.536-8.192-3.584-9.728-9.728-4.608-23.552-9.728-47.616-14.336-71.168-3.072-16.896-6.144-34.816-10.24-53.76z m138.752 205.824c11.264 0 18.432-6.144 23.552-15.872 22.528-40.96 45.568-82.432 68.096-123.392 5.12-9.728 10.752-18.944 15.872-28.672 9.728-18.944 1.536-36.352-18.944-40.448-61.952-12.8-124.416-26.624-186.368-39.424-23.552-5.12-47.616-11.264-71.168-14.336-14.336-2.048-29.696 12.8-26.624 29.696l31.744 156.16c2.048 9.728 3.584 18.944 5.12 28.672 2.048 12.8 10.752 19.456 23.552 22.528 34.304 6.656 68.096 13.824 102.912 20.48 11.264 0.512 22.016 2.048 32.256 4.608z"  horiz-adv-x="1024" />

    
    <glyph glyph-name="lipin" unicode="&#58974;" d="M960.8 673.7c12.1 0 22.3-10.2 22.3-22.3V472c0-12.1-10.2-22.3-22.3-22.3H63.2c-12.1 0-22.3 10.2-22.3 22.3V651.3c0 12.1 10.2 22.3 22.3 22.3h897.6m0 40.1H63.2C28.9 713.7 0.9 685.6 0.9 651.4V472c0-34.3 28.1-62.3 62.3-62.3h897.5c34.3 0 62.3 28.1 62.3 62.3V651.3c0.1 34.3-27.9 62.4-62.2 62.4zM889.7 402.7c12.1 0 22.3-10.2 22.3-22.3v-424c0-12.1-10.2-22.3-22.3-22.3H136.1c-12.1 0-22.3 10.2-22.3 22.3v424c0 12.1 10.2 22.3 22.3 22.3h753.6m0 40H136.1c-34.3 0-62.3-28.1-62.3-62.3v-424c0-34.3 28.1-62.3 62.3-62.3h753.6c34.3 0 62.3 28.1 62.3 62.3v424c0 34.2-28 62.3-62.3 62.3zM532 681.4h-40v-770.9h40V681.4zM179.4 684.7c-2.3 3-55.2 73.2-39.4 136.4 7.4 29.6 27.7 52.2 60.5 67.2 1 0.4 1.9 0.8 3 1.1 1.9 0.5 46.3 12.5 108.9-4.8 36.1-10 71.1-27.7 104.1-52.7 40.6-30.7 78.1-72.5 111.7-124.2L494.5 686c-125.3 193.2-264 168.5-279 165.2-20.4-9.7-32.5-22.8-36.7-39.7-9.3-37.1 20.2-86.5 32.4-102.5l-31.8-24.3zM846.4 684.7L814.6 709c12.1 16 41.7 65.7 32.4 102.6-4.2 16.9-16.2 29.9-36.6 39.6-7.2 1.6-41.8 7.7-88.7-5.8-70.1-20.3-136-75.4-190.4-159.4l-33.6 21.8c33.5 51.7 71.1 93.5 111.7 124.2 33 25 68 42.7 104.1 52.7C776.1 902 820.5 890 822.4 889.5c1-0.3 2-0.6 3-1.1 32.8-15 53.1-37.6 60.5-67.2 15.6-63.2-37.3-133.5-39.5-136.5z"  horiz-adv-x="1024" />

    
    <glyph glyph-name="sanjiaoxing" unicode="&#58948;" d="M757.4528 327.3728l-423.936-388.608A76.8 76.8 0 0 0 204.8-4.608V772.608a76.8 76.8 0 0 0 128.7168 56.6272l423.936-388.608a76.8 76.8 0 0 0 0-113.2544z"  horiz-adv-x="1024" />

    
    <glyph glyph-name="touxiang" unicode="&#58912;" d="M511.626 894.104C229.572 894.104 0.927 665.459 0.927 383.405c0-282.055 228.645-510.699 510.699-510.699s510.698 228.645 510.698 510.699S793.68 894.104 511.626 894.104z m0-69.641c243.606 0 441.058-197.474 441.058-441.058 0-87.347-25.392-168.762-69.194-237.271-73.419 77.609-170.944 132.204-280.597 151.829 70.004 33.755 118.404 105.164 118.404 188.066 0 115.388-93.535 208.922-208.923 208.922S303.452 601.417 303.452 486.03c0-82.902 48.399-154.311 118.403-188.066-110.093-19.704-207.96-74.661-281.479-152.77-44.177 68.704-69.808 150.465-69.808 238.211 0 243.584 197.496 441.058 441.058 441.058z"  horiz-adv-x="1024" />

    
    <glyph glyph-name="xin" unicode="&#59004;" d="M716.8 835.765c-81.318 0-153.6-36.141-204.8-96.377-51.2 60.236-123.482 96.377-204.8 96.377-153.6 0-277.082-132.518-277.082-298.165 0-45.176 6.023-87.341 21.082-126.494 0 0 12.047-36.141 21.082-57.224C189.742 97.882 512-67.765 512-67.765s322.259 165.647 439.718 424.66c0 0 15.058 33.129 21.082 57.223 12.047 39.153 21.082 81.317 21.082 126.494 0 162.635-123.482 295.153-277.082 295.153z m198.776-406.589c-6.023-15.058-15.058-42.164-18.07-48.188C810.165 188.235 590.306 46.682 512 1.506c-78.306 45.176-298.165 186.73-385.506 379.482-6.023 15.06-15.059 36.141-18.07 51.2-12.048 33.13-18.071 72.283-18.071 105.412 0 132.518 99.388 237.93 216.847 237.93 60.235 0 117.459-27.106 159.624-75.295l45.176-51.2 45.176 51.2c42.165 48.189 99.389 75.294 159.624 75.294 120.47 0 216.847-105.411 216.847-234.917 0-36.141-6.023-72.283-18.07-111.436z"  horiz-adv-x="1024" />

    
    <glyph glyph-name="up" unicode="&#58942;" d="M486.76635522-63.19626182000002l0 757.00934561L556.85981333 693.8130837900001 556.85981333-63.196261830000026l-70.0934581 1e-8zM416.67289711 657.36448563L520.41121519 833.99999999l106.54205626-176.63551436-210.28037434 0z"  horiz-adv-x="1024" />

    
    <glyph glyph-name="arrow-backimg" unicode="&#58882;" d="M329.525 704.453l56.285 58.261 393.996-392.021-393.996-392.021-56.285 58.261 331.78600001 333.761z"  horiz-adv-x="1024" />

    
    <glyph glyph-name="shezhi" unicode="&#58965;" d="M881 384c0 52.4 32.9 96.8 79 114.5-11 43.2-28 83.9-50.2 121.3C864.6 599.7 810 607.9 773 645c-37 37-45.2 91.7-25.1 136.8C710.4 804 669.7 821 626.5 832c-17.8-46.1-62.2-79-114.5-79-52.4 0-96.8 32.9-114.5 79-43.2-11-83.9-28-121.3-50.2 20.1-45.2 11.9-99.8-25.1-136.8-37-37-91.7-45.2-136.8-25.2C92 582.4 75 541.7 64 498.5c46.1-17.8 79-62.2 79-114.5 0-52.4-32.9-96.8-79-114.5 11-43.2 28-83.9 50.2-121.3C159.4 168.3 214 160.1 251 123c37-37 45.2-91.7 25.1-136.8C313.6-36 354.3-53 397.5-64c17.8 46.1 62.2 79 114.5 79 52.4 0 96.8-32.9 114.5-79 43.2 11 83.9 28 121.3 50.2-20.1 45.2-11.9 99.8 25.1 136.8 37 37 91.7 45.2 136.8 25.2C932 185.6 949 226.3 960 269.5c-46.1 17.7-79 62.1-79 114.5zM512 261c-67.9 0-123 55.1-123 123s55.1 123 123 123 123-55.1 123-123-55.1-123-123-123z"  horiz-adv-x="1024" />

    
    <glyph glyph-name="jiage" unicode="&#58932;" d="M512 896a512 512 0 1 1 0-1024A512 512 0 0 1 512 896z m224.475429-470.601143v-108.178286H593.334857v-37.522285h143.140572v-108.324572H593.334857v-104.009143H486.692571V171.373714H347.574857V279.698286h139.117714v37.522285H347.574857V425.398857h81.261714L292.571429 676.571429h123.099428l117.686857-216.649143L650.971429 676.571429h123.172571L637.878857 425.398857h98.596572z"  horiz-adv-x="1024" />

    
    <glyph glyph-name="jingujian" unicode="&#59489;" d="M437.921377 85.718851l-94.23913 163.180695a32.818464 32.818464 0 0 1-28.48825 16.466208H126.886665a32.533581 32.533581 0 0 1-28.48825-16.352255L4.38719 85.718851a32.476605 32.476605 0 0 1 0-32.590558l94.239131-163.123719a32.761487 32.761487 0 0 1 28.48825-16.352256h188.307332a32.533581 32.533581 0 0 1 28.48825 16.352256l94.011224 162.952789a32.476605 32.476605 0 0 1 0 32.590558z m-216.738605-112.528587a96.461214 96.461214 0 1 0 96.461214 96.461214 96.461214 96.461214 0 0 0-96.461214-96.461214z m0 0M1010.706129 92.328125l-107.91349 107.91349 18.916198 39.256808a48.885837 48.885837 0 0 1-22.7906 65.295069 49.170719 49.170719 0 0 1-55.950923-9.458099 48.373048 48.373048 0 0 1-9.458099-13.332501l-4.102308-8.546475-34.1859 34.1859 18.916198 39.256808a48.885837 48.885837 0 0 1-22.7906 65.295069 49.170719 49.170719 0 0 1-56.349758-9.287169 48.316072 48.316072 0 0 1-9.458099-13.332501l-4.102308-8.546475-34.1859 34.1859 18.916198 39.256808a48.885837 48.885837 0 0 1-22.7906 65.295069 49.170719 49.170719 0 0 1-55.950923-9.458099 48.600954 48.600954 0 0 1-9.629028-12.933666l-4.102308-8.546475-34.1859 34.1859 18.745268 39.199832a48.885837 48.885837 0 0 1-22.790599 65.295069 49.170719 49.170719 0 0 1-55.950923-9.458099 74.06945 74.06945 0 0 1-13.560407-21.822l-45.5812 46.264918L541.276748 723.285883a49.113743 49.113743 0 0 1 0 69.283424L452.165502 881.794505a49.341649 49.341649 0 0 1-69.283424 0L300.152201 799.064627 227.393211 726.362614 62.67415 561.643553a49.341649 49.341649 0 0 1 0-69.283424L152.013301 403.134931a49.569555 49.569555 0 0 1 69.283424 0L301.975449 483.984584l101.019334-100.905381-18.916198-39.541691A48.885837 48.885837 0 0 1 444.416698 276.305242a48.259095 48.259095 0 0 1 27.918485 25.012684l4.102308 8.546475 34.1859-34.1859-18.916198-39.256809a49.455602 49.455602 0 0 1 0.683718-44.042834 48.942813 48.942813 0 0 1 59.597419-23.360365 48.316072 48.316072 0 0 1 27.918484 25.012684l4.102308 8.546475 34.1859-34.1859-18.688292-39.88355a48.954209 48.954209 0 1 1 88.199622-42.504469l4.102308 8.546475 34.1859-34.1859-18.916198-39.256808a48.954209 48.954209 0 1 1 88.199622-42.504469l4.102308 8.546475 52.532332-52.532333a49.341649 49.341649 0 0 1 69.283424 0l89.339152 88.997293a49.569555 49.569555 0 0 1 0 69.283424z m0 0"  horiz-adv-x="1027" />

    
    <glyph glyph-name="jiasijiadianqiquan-" unicode="&#58913;" d="M934.4 488.448H109.056c-37.888 0-69.12 24.576-77.824 61.44-7.168 30.72 3.072 70.656 42.496 89.6l412.672 204.8c22.016 10.752 48.128 10.752 70.144 0l412.672-204.8c33.792-16.896 50.688-52.736 41.984-89.6-7.68-36.864-38.912-61.44-76.8-61.44zM500.224 817.152l-412.672-204.8c-26.112-12.8-30.208-37.888-26.112-55.296 4.096-17.408 18.944-37.888 47.616-37.888h825.344c28.672 0 43.52 20.48 47.616 37.888 4.096 17.408 0 42.496-26.112 55.296l-412.672 204.8c-13.312 6.656-29.184 6.656-43.008 0zM816.64-84.992h-588.8c-27.648 0-50.176 22.528-50.176 50.176V519.168h689.664v-553.984c-0.512-27.648-23.552-50.176-50.688-50.176zM208.384 488.448v-523.264c0-10.752 8.704-19.456 19.456-19.456h588.8c10.752 0 19.456 9.216 19.968 19.968V488.448H208.384zM663.552-84.992H380.416v286.72c0 42.496 34.304 76.8 76.8 76.8h129.536c42.496 0 76.8-34.304 76.8-76.8v-286.72z m-252.416 30.72h221.696v256c0 25.6-20.48 46.08-46.08 46.08H457.216c-25.6 0-46.08-20.48-46.08-46.08v-256z"  horiz-adv-x="1034" />

    
    <glyph glyph-name="banshou_Lineweb" unicode="&#58952;" d="M161.6-27.2a56.32 56.32 0 0 0-40.768 17.6 58.88 58.88 0 0 0 40.768 100.032c15.232 0 30.4-6.4 40.832-17.664a58.88 58.88 0 0 0 0-82.368 52.224 52.224 0 0 0-40.832-17.6z m0 68.032a9.088 9.088 0 0 1-6.4-2.432 10.112 10.112 0 0 1 0-14.4 9.088 9.088 0 0 1 6.4-2.368 9.088 9.088 0 0 1 6.4 2.368 10.112 10.112 0 0 1 0 14.4 9.088 9.088 0 0 1-6.4 2.368zM178.432-76.032c-24.832 0-47.232 9.6-64.832 27.264l-24 24a93.696 93.696 0 0 0 0 130.368l1.6 1.6 423.168 362.368a244.992 244.992 0 0 0-33.6 144A246.144 246.144 0 0 0 550.4 769.664a238.4 238.4 0 0 0 262.4 53.632c7.232-3.2 12.8-9.6 14.4-17.664a23.68 23.68 0 0 0-6.4-21.568L696.768 659.2 780.8 573.632 904 697.6a24.832 24.832 0 0 0 17.6 7.232c1.6 0 3.2 0 4.8-0.832a24.768 24.768 0 0 0 17.6-14.4c18.368-44.032 23.232-92.8 14.4-139.968-8.768-48.832-32-92.8-66.368-128a236.16 236.16 0 0 0-169.6-72c-35.2 0-70.4 8-101.632 23.168l-377.6-421.568a91.52 91.52 0 0 0-64.768-27.2z m-54.4 147.2c-16-17.536-16-44.8 0.768-61.568l24-24c8-8 18.368-12.8 29.568-12.8a41.856 41.856 0 0 1 29.632 12.8l388.8 434.368a26.048 26.048 0 0 0 18.432 8c3.968 0 8.768-0.768 11.968-3.2 28.8-16.768 61.568-25.6 95.168-25.6 51.2 0 98.432 20.032 134.4 56.832a200.576 200.576 0 0 1 52.8 178.368l-112-112.768a24.832 24.832 0 0 0-17.536-7.232c-6.4 0-12.8 2.432-17.664 7.232l-116.8 120.768a24.128 24.128 0 0 0 0 34.432l112 112.768a182.592 182.592 0 0 1-35.968 3.2c-51.2 0-100.032-20.8-136-57.6-68.032-68.8-75.2-176.768-18.368-256a24.64 24.64 0 0 0-4.032-32.768l-439.232-375.168zM405.632 373.632c-6.4 0-12.8 2.368-17.664 7.168L216.064 556.032h-58.432a23.872 23.872 0 0 0-20.8 11.968L57.6 697.6a25.472 25.472 0 0 0 4.032 30.4l64 64.768a24.192 24.192 0 0 0 30.4 3.2l130.368-81.536a23.808 23.808 0 0 0 11.2-20.032l0.768-58.432L475.2 454.4a24.832 24.832 0 0 0 7.168-17.6c0-6.4-2.368-12.8-7.168-16.832a23.04 23.04 0 0 0-16.832-7.168c-6.4 0-12.8 2.368-17.536 7.168L256 608.832a26.688 26.688 0 0 0-7.168 16.832l-0.832 55.168-102.4 64-36.8-37.568 62.4-102.4h54.4c6.4 0 12.8-2.432 17.6-7.168l179.2-182.4a24.832 24.832 0 0 0 7.232-17.664c0-6.4-2.432-12.8-7.232-17.536a24.32 24.32 0 0 0-16.768-6.4z m363.136-456.832a56.32 56.32 0 0 0-40.768 17.6l-207.232 213.632a58.88 58.88 0 0 0 0 82.368l6.4 6.4-7.168 7.232a23.488 23.488 0 0 0 0.768 34.368 23.04 23.04 0 0 0 16.832 7.232c6.4 0 12.8-2.432 17.6-7.232l24-24c9.6-9.6 8.768-24.768 0-34.368l-23.232-24.064a10.112 10.112 0 0 1 0-14.336l207.232-213.632a9.088 9.088 0 0 1 6.4-2.368 9.088 9.088 0 0 1 6.4 2.368l94.4 96.768a10.112 10.112 0 0 1 0 14.464l-208 213.568a9.088 9.088 0 0 1-6.4 2.432 9.088 9.088 0 0 1-6.4-2.432l-25.6-26.368a24.832 24.832 0 0 0-17.6-7.232c-6.4 0-12.8 2.368-17.6 7.168l-20.8 23.232a24.832 24.832 0 0 0-7.232 17.6c0 6.4 2.432 12.8 7.232 16.768a23.04 23.04 0 0 0 16.768 7.232c6.4 0 12.8-2.432 17.6-7.232l4.8-4.736 8.064 8a57.664 57.664 0 0 0 40.768 17.536c15.232 0 30.4-6.4 40.768-17.536l207.232-213.632a58.88 58.88 0 0 0 0-82.368l-94.4-96.832a55.04 55.04 0 0 0-40.832-17.6z"  horiz-adv-x="1024" />

    
    <glyph glyph-name="ziyuan" unicode="&#58924;" d="M952.59995 435.664952V710.596275a42.468635 42.468635 0 0 1-40.610632 42.468634c-212.343173 9.449271-372.13141 132.714483-373.670898 133.829285a42.468635 42.468635 0 0 1-52.554935 0c-1.64566-1.539488-160.212924-124.380013-373.723984-133.88237a42.468635 42.468635 0 0 1-40.610632-42.468635v-274.878237a629.916022 629.916022 0 0 1 47.19327-236.815723c47.352528-115.514686 152.143883-265.694395 382.695483-325.468998a41.937777 41.937777 0 0 1 21.234318 0c230.5516 59.774603 335.342955 209.954312 382.695483 325.468998A629.916022 629.916022 0 0 1 952.59995 435.664952z m-125.81333-204.645733c-56.801799-138.660092-162.65487-230.286171-314.745667-272.595548-150.975996 41.990862-256.404381 132.714483-313.577781 269.728915A549.650303 549.650303 0 0 0 156.313053 433.435349V671.2066159999999C326.187591 688.937271 458.105787 765.327728 511.987867 801.372981c53.88208-36.045254 185.800276-112.541882 355.674814-130.166365v-237.771267a542.802235 542.802235 0 0 0-40.929146-202.41613zM696.301741 551.816667l-237.877439-237.930525L327.673993 444.742623A42.468635 42.468635 0 0 1 267.793218 384.596419l160.743782-160.796868a42.468635 42.468635 0 0 1 60.040032 0L756.182515 491.72355a42.468635 42.468635 0 0 1-60.040032 60.093117z"  horiz-adv-x="1024" />

    
    <glyph glyph-name="ceshi" unicode="&#58995;" d="M870.1 333.6v25.5c2 116.5-32.2 214.5-99.6 284-32.2 33.2-71 58.2-116 75.6-7.2 62.8-74.6 112.4-156.8 112.4-82.2 0-150.2-49.5-156.8-112.4-45-17.4-83.8-42.4-116-75.6-67.4-69.5-101.7-167-99.6-283.5v-31.2c-17.4-17.9-31.2-44.4-20.9-82.2 7.7-28.1 28.1-48.5 53.1-57.7 12.8-8.2 27.6-12.8 43.9-12.8 32.2-141 148.1-237 299.9-237 151.7 0 267.7 96 299.9 237.5 1 0 2-0.5 3.1-0.5 19.9 0 38.3 7.2 53.1 18.9 18.9 10.7 33.7 29.1 39.8 52.1 10.7 41-7.2 69.1-27.1 86.9z m-88.9-77.1c0-18.9-1.5-36.8-4.1-54.1-49.5-79.7-131.3-131.8-232.9-143-7.7 10.2-23 16.9-40.9 16.9-25.5 0-46-13.8-46-31.2 0-16.9 20.4-31.2 46-31.2 23 0 41.4 11.2 45.5 26.1 32.7 3.6 63.9 11.7 93.5 23.5 41.9 16.9 78.7 41.9 109.8 73.6 5.1 5.1 9.7 10.2 14.3 15.8-36.8-113-135.4-185.5-263.6-185.5h-1c-165 0-279.9 119-279.9 289.1l-0.5 16.3c0 7.2 1 26.6 2 45 68.5 25 130.3 120.6 155.3 164.5 23-31.2 75.6-91.4 156.3-122.6 30.1-11.7 60.8-17.9 90.9-24.5 59.8-12.8 116.5-25 154.8-75.1l1.5-1.5-1-2.1z m0 0"  horiz-adv-x="1024" />

    
    <glyph glyph-name="gengduo" unicode="&#59291;" d="M512-128A512 512 0 1 0 512 896a512 512 0 0 0 0-1024zM417.088 545.088L578.176 384l-161.088-161.088a25.6 25.6 0 0 1 36.224-36.224l179.2 179.2a25.6 25.6 0 0 1 0 36.224l-179.2 179.2a25.6 25.6 0 0 1-36.224-36.224z"  horiz-adv-x="1024" />

    
    <glyph glyph-name="excel" unicode="&#58883;" d="M921.18736592 557.96167111h-162.38364445v-100.92544h162.38364445v100.92544z m0-128.45056h-162.38364445v-100.96184889h162.38364445V429.51111111z m0 256.90112h-162.38364445v-100.92544h162.38364445V686.41223111z m0-509.21472h-162.38364445v-100.96184889h162.38364445V177.19751111000005z m74.63822222 610.14016H605.34025481a33.86026667 33.86026667 0 0 1-13.18001778-2.69425778V893.72444445L12.89481481 778.16263111v-788.32526222L592.16023703-125.72444444999996v103.61969778a33.86026667 33.86026667 0 0 1 13.18001778-2.69425778h390.48533333c19.40593778 0 35.13457778 16.49322667 35.13457778 36.70016V750.63751111c-0.03640889 20.24334222-15.72864 36.70016-35.13457778 36.70016z m-592.37262222-573.54922666l-70.19633778 4.58752-52.61084444 133.11089777-57.05272889-123.97226667-65.86368 4.58752 83.37635556 151.53379556-74.56540445 165.15072 65.79086222 4.58752 43.87271111-123.86304h8.73813334l48.27818666 133.07448889 70.19633778 4.55111111-87.74542222-174.32576 87.74542222-179.02250666z m583.59808-192.67584H592.08741925v55.05024h131.61813334V177.19751111000005h-131.61813334v22.86478222h131.61813334V300.98773332999997h-131.61813334v27.52512h131.61813334V429.51111111h-131.61813334v27.56152889h131.61813334v100.92544h-131.61813334v27.48871111h131.61813334V686.41223111h-131.61813334V741.46247111h394.96362667v-720.34986666z m-65.86368 279.91153777h-162.38364445v-100.92544h162.38364445V300.98773332999997z"  horiz-adv-x="1024" />

    
    <glyph glyph-name="dianji" unicode="&#59800;" d="M209.3 419h4.9c7.9-40.9 25.5-79.3 51.3-112l-58.4-58.5c31.5-31.4 82.4-31.4 113.9 0l3.5 3.5c8.3-5.6 16.9-10.7 25.8-15.4 34 8.1 69.9 0.6 97.8-20.4l28.2-21.4 28.2 21.4c25.7 19.4 58.2 27.4 89.9 22.1 13.5 7.2 26.3 15.6 38.2 25.1l56.9-56.9 8.3 6.3c24.7 32 21.8 77.4-6.8 106l-3.5 3.5c23.4 34.5 38.1 74.1 43 115.4H813c0 44.5-36.1 80.6-80.6 80.6h-5c-7.9 40.9-25.6 79.4-51.4 112.1l58.4 58.4c-31.5 31.4-82.4 31.4-113.9 0l-3.5-3.5c-34.5 23.4-74.2 38.1-115.6 42.9V810.8c-44.5 0-80.6-36.1-80.6-80.6v-5.1c-40.9-7.8-79.3-25.3-112-51l-58.4 58.4c-31.4-31.5-31.4-82.4 0-113.9l3.5-3.5c-23.3-34.5-38-74.2-42.8-115.6h-82.5c0.1-44.4 36.2-80.5 80.7-80.5z m61.2 73.6c3.8 31.9 15.1 62.5 33.1 89.2l17.5 26 25 19.8c25.3 19.9 54.9 33.5 86.5 39.6l30.8 5.9 31.5-3.7c31.9-3.8 62.5-15.1 89.2-33.1l26-17.5 19.8-25c19.9-25.3 33.5-54.9 39.6-86.5l5.9-30.8-3.7-31.5c-3.8-31.9-15.1-62.5-33.1-89.2l-17.5-26-25-19.8c-25.3-19.9-54.9-33.5-86.5-39.6l-30.8-5.9-31.5 3.7c-31.9 3.8-62.5 15.1-89.2 33.1L332 318.9l-19.8 25c-19.9 25.3-33.5 54.9-39.6 86.5l-5.9 30.8 3.8 31.4z m206-500.8c-19 0-37.5 6.2-52.7 17.6L394 31.8c-9.9 7.5-23.6 7.5-33.5 0l-29.7-22.3c-31.2-23.5-74.2-23.5-105.3 0l-29.7 22.3c-9.9 7.5-23.6 7.5-33.5 0l-38.4-29.1c-13.1-9.9-31.7-7.4-41.7 5.7s-7.4 31.7 5.7 41.7l38.4 29.1c31.2 23.5 74.2 23.5 105.3 0l29.7-22.3c9.9-7.5 23.6-7.5 33.5 0l29.7 22.3c31.2 23.5 74.2 23.5 105.3 0l29.7-22.3c9.9-7.5 23.6-7.5 33.5 0l29.7 22.3c31.2 23.5 74.2 23.5 105.3 0l29.7-22.3c9.9-7.5 23.6-7.5 33.5 0l29.7 22.3c31.2 23.5 74.2 23.5 105.3 0l29.7-22.3c13.1-9.9 15.6-28.6 5.7-41.7s-28.6-15.6-41.7-5.7l-29.7 22.3c-9.9 7.5-23.6 7.5-33.5 0L727 9.5c-31-23.5-74-23.5-105.1 0l-29.7 22.3c-9.9 7.5-23.6 7.5-33.5 0L529 9.5c-15.1-11.5-33.6-17.7-52.5-17.7zM476.5 105.3c-19 0-37.5 6.2-52.7 17.6L394 145.2c-9.9 7.5-23.6 7.5-33.5 0L330.8 123c-31.2-23.5-74.2-23.5-105.3 0l-29.7 22.3c-9.9 7.5-23.6 7.5-33.5 0l-38.4-29.1c-13.1-9.9-31.7-7.4-41.7 5.7s-7.4 31.7 5.7 41.7l38.4 29.1c31.2 23.5 74.2 23.5 105.3 0l29.7-22.3c9.9-7.5 23.6-7.5 33.5 0l29.7 22.3c31.2 23.5 74.2 23.5 105.3 0l29.7-22.3c9.9-7.5 23.6-7.5 33.5 0l29.7 22.3c31.2 23.5 74.2 23.5 105.3 0l29.7-22.3c9.9-7.5 23.6-7.5 33.5 0l29.7 22.3c31.2 23.5 74.2 23.5 105.3 0l29.7-22.3c13.1-9.9 15.6-28.6 5.7-41.7s-28.6-15.6-41.7-5.7l-29.7 22.3c-9.9 7.5-23.6 7.5-33.5 0L727.2 123c-31.2-23.5-74.2-23.5-105.3 0l-29.7 22.3c-9.9 7.5-23.6 7.5-33.5 0L529 123c-15.1-11.5-33.6-17.7-52.5-17.7zM475.2 591.5h59.5s12-4.2-14.3-35.4-45.3-59-45.3-59h82.6s-41.6-56.5-143.1-182.4L475.5 451h-67.3s-8-0.9 4 20.8 62.6 119.6 62.6 119.6l0.4 0.1z"  horiz-adv-x="1024" />

    
    <glyph glyph-name="mada" unicode="&#58989;" d="M308.826027 382.933333c0 111.68 90.986667 202.666667 202.666666 202.666667 111.658667 0 202.666667-90.986667 202.666667-202.666667 1.365333-111.68-89.621333-202.666667-202.666667-202.666666-111.68 0-202.666667 90.986667-202.666666 202.666666zM806.404693 555.2c25.6-44.8 43.2-96 46.4-150.4 0 4.8 1.6 11.2 1.6 17.6 30.4 57.6 91.2 72 158.4 65.6a512.576 512.576 0 0 1-92.8 203.2c-76.8-24-107.2-78.4-113.6-136zM332.804693 675.2c41.6 25.6 88 41.6 137.6 48h-3.2c-57.6 32-70.4 92.8-64 161.6-75.2-16-145.6-49.6-204.8-94.4 27.2-76.8 80-108.8 134.4-115.2zM171.204693 377.6V384c0 49.6 11.2 97.6 30.4 140.8-1.6-3.2-4.8-6.4-8-9.6-54.4-33.6-113.6-14.4-169.6 24A499.904 499.904 0 0 1 0.004693 384c0-22.4 1.6-46.4 4.8-68.8 78.4-14.4 132.8 16 166.4 62.4z m46.4-168C192.004693 254.4 174.404693 304 171.204693 358.4c0-6.4-1.6-12.8-3.2-20.8-30.4-56-91.2-70.4-156.8-64 16-75.2 49.6-144 94.4-201.6 76.8 25.6 107.2 81.6 112 137.6zM1020.804693 444.8c-80 17.6-134.4-16-166.4-62.4 0-60.8-16-116.8-43.2-166.4 6.4 11.2 11.2 17.6 19.2 28.8 54.4 33.6 113.6 16 168-22.4 16 51.2 25.6 104 25.6 160 0 22.4-1.6 43.2-3.2 62.4z m-808 102.4c24 43.2 57.6 81.6 97.6 110.4-1.6-1.6-4.8-1.6-6.4-3.2-64-1.6-107.2 44.8-136 107.2A494.08 494.08 0 0 1 38.404693 579.2c60.8-54.4 121.6-54.4 174.4-32zM806.404693 209.6c-59.2-99.2-169.6-166.4-294.4-166.4-121.6 0-228.8 64-289.6 160 4.8-9.6 8-17.6 12.8-28.8 1.6-64-43.2-105.6-102.4-134.4 49.6-54.4 112-99.2 182.4-128 52.8 60.8 51.2 124.8 27.2 176 16-9.6 22.4-14.4 35.2-24 33.6-54.4 16-112-22.4-166.4 49.6-16 102.4-24 156.8-24 22.4 0 43.2 1.6 64 3.2 16 78.4-17.6 132.8-65.6 164.8 17.6 0 27.2-1.6 43.2-3.2 56-30.4 70.4-89.6 65.6-153.6 75.2 16 144 48 201.6 92.8-25.6 76.8-81.6 107.2-139.2 110.4 16 8 24 12.8 38.4 17.6 64 1.6 105.6-41.6 134.4-102.4 56 49.6 99.2 112 129.6 180.8-62.4 54.4-126.4 51.2-177.6 25.6zM502.404693 724.8H512.004693c51.2 0 99.2-11.2 142.4-30.4-1.6 1.6-4.8 3.2-8 6.4-35.2 56-16 115.2 24 171.2C620.804693 888 568.004693 896 512.004693 896c-22.4 0-44.8-1.6-65.6-4.8-17.6-78.4 12.8-132.8 56-166.4z m177.6-43.2c44.8-25.6 83.2-60.8 113.6-102.4-1.6 3.2-3.2 6.4-4.8 11.2C787.204693 656 832.004693 697.6 894.404693 726.4a494.08 494.08 0 0 1-182.4 129.6c-56-59.2-56-123.2-32-174.4z"  horiz-adv-x="1024" />

    
    <glyph glyph-name="deng1-copy-copy" unicode="&#58884;" d="M257.41333333 155.61599999999999l-50.06186666-13.376c-13.792-3.72373333-22.06613333-17.9296-18.3424-31.72053333 3.72266667-13.792 17.92853333-22.06613333 31.71946666-18.3424l50.06293334 13.37813333c13.79093333 3.72266667 22.06613333 17.92853333 18.3424 31.71946667-3.58613333 13.792-17.792 22.06613333-31.72053334 18.3424z m61.9232-150.73706667l-36.6848-36.6848c-10.06826667-10.06826667-10.06826667-26.6176 0-36.6848 10.0672-10.0672 26.61653333-10.0672 36.6848 0l36.6848 36.6848c10.0672 10.2048 10.0672 26.61653333 0 36.6848-10.06826667 10.0672-26.48 10.0672-36.6848 0z m496.48426667 130.74133334l-52.13013333 13.51466666c-14.34346667 3.72373333-29.23733333-4.55146667-33.09866667-18.3424-3.86133333-13.92853333 4.688-28.1344 19.03146667-31.85706666l52.13013333-13.51573334c14.34346667-3.72373333 29.23733333 4.5504 33.09866667 18.48 4 13.792-4.5504 27.9968-19.03146667 31.71946667zM698.32-2.1546666699999832c-10.48213333 10.2048-27.58293333 10.2048-38.2016 0-10.48213333-10.20586667-10.48213333-26.6176 0-36.8224l38.2016-36.82346666c10.48106667-10.2048 27.58186667-10.2048 38.2016 0 10.48106667 10.20586667 10.48106667 26.6176 0 36.82346666l-38.2016 36.82133334zM524.41173333-6.293333329999996c-14.3424 0-25.92746667-11.584-25.92746666-25.92746667v-51.85493333c0-14.34346667 11.584-25.92746667 25.92746666-25.92746667s25.92746667 11.584 25.92746667 25.92746667v51.85493333c0 14.3424-11.584 25.92746667-25.92746667 25.92746667zM558.69787907 741.35470079c0 0.33528542 0.16699543 0.66927629 0.16699544 1.0045617L558.86487451 1026.05861924c0 15.73381814-14.05868563 28.28566124-31.46634176 28.28566124s-31.46634177-12.72013307-31.46634178-28.28566124L495.93219097 743.53211415c-256.92053808-9.03846622-470.99185936-238.00733392-470.99185935-507.98199592l0-29.96079376L277.50733748 205.58932446999995c18.91320415-107.11915837 116.49161545-188.96504605 233.98908714-188.96504604 117.49747167 0 215.07717751 81.84588768 233.99038166 188.96504604l252.56830041 0-1e-8 29.96079376c0 258.92836694-196.83324965 480.19732101-439.35852215 505.8058771z m-47.19886538-664.81271845c-84.19029648 0-154.65589823 55.23406444-172.89853156 129.0460476l345.79576857 0c-18.24392786-73.81198317-88.7095296-129.04604761-172.89853155-129.0460476zM85.86389175 265.50832291999996C100.92843362 495.31475689 289.72777877 684.11280749 511.49771915 684.1128075s410.57058007-188.79934515 425.6338274-418.60448458L85.86389175 265.50832291999996z"  horiz-adv-x="1024" />

    
    <glyph glyph-name="arrow-top" unicode="&#58886;" d="M170.21366667 201.52499999999998l-58.261 56.285 392.021 393.996 392.021-393.996-58.261-56.285-333.761 331.786z"  horiz-adv-x="1024" />

    
    <glyph glyph-name="gongju" unicode="&#59051;" d="M332.48 192l-66.56-13.76-119.36-180.48L192-47.36l181.12 119.68 14.08 66.24 112.32 113.28-54.4 54.4z m256 25.28l336 334.72a119.36 119.36 0 1 1-168.64 168.64L420.8 386.88zM864 626.88a22.08 22.08 0 1 0 32-32l-261.44-261.76a22.08 22.08 0 1 0-32 32z m-64 64a21.76 21.76 0 0 0 32 0 22.08 22.08 0 0 0 0-32l-261.76-261.44a22.08 22.08 0 1 0-32 32z m-64-384l-154.88-154.88c71.68-77.76 130.88-142.4 160-172.16a117.12 117.12 0 1 1 165.76 165.76z m123.2-278.72a47.36 47.36 0 1 0 0 66.88 47.04 47.04 0 0 0 0-66.88zM500.8 604.8a218.88 218.88 0 0 1-218.88 218.88 213.76 213.76 0 0 1-83.52-16.64l117.12-117.12a54.72 54.72 0 0 0 0-77.12l-44.48-44.48a54.72 54.72 0 0 0-77.12 0L78.4 683.84a218.56 218.56 0 1 1 422.4-79.04z m0 0"  horiz-adv-x="1024" />

    
    <glyph glyph-name="icon_huabanfuben" unicode="&#58888;" d="M854.33345396 190.91242523000005h-74.79554503c-28.53737692 0-51.78153127 23.24415435-51.78153006 51.78153004V449.93514943c0 28.53737692 23.24415435 51.78153127 51.78153006 51.78153127h74.79554503c28.53737692 0 51.78153127-23.24415435 51.78153127-51.78153127v-207.24119416c0-28.53737692-23.24415435-51.78153127-51.78153127-51.78153004z m-74.79554503 51.78153004s0.11507029 0 0 0h74.79554503V449.93514943h-74.79554503v-207.24119416zM270.3528561 190.91242523000005h-100.68631006c-28.53737692 0-51.78153127 23.24415435-51.78153127 51.78153004V449.93514943c0 28.53737692 23.24415435 51.78153127 51.78153127 51.78153127h74.79554503c28.53737692 0 51.78153127-23.24415435 51.78153006-51.78153127v-233.13195918c0-14.26868846-11.62207657-25.89076502-25.89076503-25.89076502z m-100.68631006 51.78153004s0.11507029 0 0 0h74.79554503V449.93514943h-74.79554503v-207.24119416zM454.4649662-24.613813059999984a57.5350338 57.5350338 0 1 1 115.0700676 0 57.5350338 57.5350338 0 1 1-115.0700676 0ZM512-50.849788959999955v51.78153005c118.98245151 0 215.75637887 96.77392737 215.75637887 215.87144916V582.84107852c0 118.98245151-96.77392737 215.87144916-215.75637887 215.87144916s-215.75637887-96.77392737-215.75637887-215.87144916v-366.03788827c0-14.26868846-11.62207657-25.89076502-25.89076503-25.89076502s-25.89076502 11.62207657-25.89076503 25.89076502V582.84107852c0 71.228372 27.84695637 138.31422194 78.59285623 189.06012301 50.63083076 50.63083076 117.83174978 78.59285743 188.9450527 78.59285621s138.31422194-27.96202667 188.9450527-78.59285621c50.63083076-50.63083076 78.59285743-117.83174978 78.59285623-189.06012301v-366.03788827c0-71.228372-27.84695637-138.31422194-78.59285623-189.060123-50.63083076-50.63083076-117.7166807-78.59285743-188.9450527-78.59285621z"  horiz-adv-x="1024" />

    
    <glyph glyph-name="wenti_yiwen" unicode="&#58966;" d="M511.7 845.02C257.8 845.02 51.28 638.4 51.28 384.6c0-253.901 206.52-460.42 460.42-460.42S972.12 130.699 972.12 384.6c0 253.8-206.52 460.42-460.42 460.42z m0-854.866c-217.515 0-394.346 176.93-394.346 394.346 0 217.515 176.931 394.346 394.346 394.346S906.046 601.915 906.046 384.5 729.116-9.846 511.7-9.846z m0 0M511.7 649.696c-79.669 0-144.543-64.275-144.543-143.344 0-18.193 14.794-33.087 32.987-33.087s33.087 14.794 33.087 33.087c0 43.283 34.486 77.27 78.47 77.27 43.282 0 78.468-35.486 78.468-79.17 0-16.493-23.59-40.083-44.382-60.875-31.488-31.388-67.174-67.074-67.174-114.855v-47.182c0-18.293 14.794-33.087 33.087-33.087 18.193 0 33.087 14.794 33.087 33.087v47.282c0 20.392 24.29 44.682 47.782 68.073 29.888 29.888 63.775 63.775 63.775 107.558-0.1 80.069-64.975 145.243-144.644 145.243z m-49.58-514.899c0-27.389 22.19-49.58 49.58-49.58 27.39 0 49.58 22.191 49.58 49.58s-22.19 49.581-49.58 49.581c-27.39 0-49.58-22.191-49.58-49.58z m0 0"  horiz-adv-x="1024" />

    
    <glyph glyph-name="gouwuche" unicode="&#58926;" d="M276.841412 110.712471h787.154823a37.707294 37.707294 0 0 1 35.177412 35.026823s53.970824 300.333176 78.607059 507.181177c7.077647 57.223529-19.907765 85.293176-72.734118 85.293176H245.187765l-14.155294 122.699294A36.592941 36.592941 0 0 1 198.174118 896H39.845647a39.755294 39.755294 0 0 1 0-79.450353h123.181177l79.811764-670.930823a35.84 35.84 0 0 1 34.002824-34.936471zM1101.552941 659.937882c-21.232941-165.948235-56.32-387.975529-70.384941-470.738823H310.874353l-56.32 470.738823h846.998588zM315.542588 31.262118a78.305882 78.305882 0 1 1 78.607059-78.305883 78.426353 78.426353 0 0 1-78.546823 78.305883h-0.060236z m709.722353 0a78.305882 78.305882 0 1 1 78.607059-78.305883 78.426353 78.426353 0 0 1-78.576941 78.305883z"  horiz-adv-x="1204" />

    
    <glyph glyph-name="sousuo" unicode="&#59102;" d="M477.24468242 834a414.00267451 414.00267451 0 1 1 262.89169805-733.81974082l3.72602461 2.89801934 159.59803096-159.59803096a32.08520742 32.08520742 0 0 1 45.54029355 0l4.34702812 5.79603692a32.08520742 32.08520742 0 0 1 0 45.54029443l-159.59803096 159.80503271 2.89801934 3.51902197A412.7606666 412.7606666 0 0 1 890.00534903 415.44329648a36.84623818 36.84623818 0 0 1-1e-8 6.21003956A414.00267451 414.00267451 0 0 1 477.24468242 834z m341.34520518-418.55670352a338.6541876 338.6541876 0 0 0-78.45350713-212.38337197l-20.7001336-26.08216875-25.66816523-20.70013359A341.55220605 341.55220605 0 1 0 477.24468242 761.96353506a343.20821748 343.20821748 0 0 0 341.34520518-336.58417441z"  horiz-adv-x="1025" />

    
    <glyph glyph-name="weixin" unicode="&#58945;" d="M575.7952 384c-11.008 0-22.0416-11.008-22.0416-22.0672 0-11.008 11.008-22.0416 22.0416-22.0416 16.5376 0 27.5712 11.008 27.5712 22.0416 0.7936 11.0336-10.24 22.0672-27.5712 22.0672z m-228.4288 162.2528c-16.5376 0-33.8688-11.008-33.8688-27.5456 0-16.5632 16.5376-27.5712 33.8688-27.5712 16.5376 0 27.5712 11.008 27.5712 27.5712 0 16.5376-11.008 27.5456-27.5712 27.5456z m155.9808-55.9104c16.5376 0 27.5456 11.008 27.5456 27.5712 0 16.5376-11.008 27.5712-27.5456 27.5712-16.5632 0-33.8944-11.0336-33.8944-27.5712 0-16.5376 17.3312-27.5712 33.8944-27.5712zM512 896C229.2224 896 0 666.7776 0 384s229.2224-512 512-512 512 229.2224 512 512S794.7776 896 512 896z m-92.16-634.88c-27.5712 0-50.432 5.504-77.9776 11.008l-77.9776-39.3728 22.0416 66.9696c-55.9104 39.3728-89.0112 89.7792-89.0112 151.2192 0 106.3424 100.8384 189.8496 222.9248 189.8496 109.4912 0 205.568-66.9696 225.28-156.7488-7.0912 0.768-14.1824 1.5616-21.248 1.5616-105.5744 0-189.8496-78.7712-189.8496-176.4352 0-16.5376 2.3552-31.488 7.0912-46.464-7.0912-1.5872-14.1824-1.5872-21.2736-1.5872z m329.2672-77.9776l16.5376-55.936-61.44 33.8688c-22.0672-5.504-44.9024-11.008-66.9696-11.008-106.3424 0-189.824 72.448-189.824 162.2528 0 89.0112 83.4816 162.2528 189.824 162.2528 100.0448 0 189.056-72.448 189.056-162.2528 0.768-51.2-32.3072-96.1024-77.184-129.1776zM698.6752 384c-11.008 0-22.0416-11.008-22.0416-22.0672 0-11.008 11.008-22.0416 22.0416-22.0416 16.5376 0 27.5712 11.008 27.5712 22.0416 0.7936 11.0336-11.008 22.0672-27.5712 22.0672z"  horiz-adv-x="1024" />

    
    <glyph glyph-name="dianji1" unicode="&#59074;" d="M938.752 491.52h-38.5024V604.16a46.08 46.08 0 0 1-46.08 46.08h-139.264v28.2112a46.08 46.08 0 0 1-46.08 46.08H342.528a46.08 46.08 0 0 1-46.08-46.08v-27.8528H157.2864a46.08 46.08 0 0 1-46.08-46.08v-387.584a46.08 46.08 0 0 1 46.08-46.08h139.264v-27.8528a44.6464 44.6464 0 0 1 2.1504-13.2608h-13.9776a40.2944 40.2944 0 0 1-40.192-40.192v-32.6656a40.2944 40.2944 0 0 1 40.192-40.192H727.04a40.2944 40.2944 0 0 1 40.192 40.192v32.6656a40.2944 40.2944 0 0 1-40.192 40.192h-13.9264a44.6464 44.6464 0 0 1 2.1504 13.2608v27.8528h139.264a46.08 46.08 0 0 1 46.08 46.08v112.64h38.5024a23.808 23.808 0 0 1 23.7056 23.7568V467.968a23.8592 23.8592 0 0 1-24.064 23.552zM296.4992 204.0832h-139.264a12.8 12.8 0 0 0-12.8 12.8v387.584a12.8 12.8 0 0 0 12.8 12.8h139.264z m437.1968-114.5344v-32.6656a6.912 6.912 0 0 0-6.9632-6.912H284.7232a6.912 6.912 0 0 0-6.9632 6.912v32.6656a6.9632 6.9632 0 0 0 6.9632 6.9632H727.04a6.9632 6.9632 0 0 0 6.9632-6.8608z m-51.968 53.4528a12.8 12.8 0 0 0-12.7488-12.8H342.4768a12.8 12.8 0 0 0-12.7488 12.8V678.4a12.7488 12.7488 0 0 0 12.7488 12.8h326.4512a12.7488 12.7488 0 0 0 12.8-12.7488z m185.2928 73.8816a12.7488 12.7488 0 0 0-12.7488-12.8h-139.264V617.1648h139.264a12.6976 12.6976 0 0 0 12.7488-13.0048z m62.208 146.0224h-27.3408V458.24h27.3408z"  horiz-adv-x="1024" />

    
    <glyph glyph-name="sijiao" unicode="&#59075;" d="M921.6-25.6H102.4V793.6h819.2v-819.2zM163.84 35.84h692.906667V732.16H163.84v-696.32zM720.213333 117.76H303.786667V650.24h416.426666v-532.48z m-348.16 68.266667h279.893334V581.973333h-279.893334v-395.946666zM477.866667 752.64h68.266666v-143.36h-68.266666zM477.866667 155.306667h68.266666v-143.36h-68.266666zM164.5568 349.149867v68.266666h187.733333v-68.266666zM713.728 349.525333v68.266667h187.733333v-68.266667z"  horiz-adv-x="1024" />

    


  </font>
</defs>
</svg>
